<?xml version="1.0" encoding="UTF-8" standalone="no"?>
<!-- Created with Inkscape (http://www.inkscape.org/) -->

<svg
   xmlns:dc="http://purl.org/dc/elements/1.1/"
   xmlns:cc="http://creativecommons.org/ns#"
   xmlns:rdf="http://www.w3.org/1999/02/22-rdf-syntax-ns#"
   xmlns:svg="http://www.w3.org/2000/svg"
   xmlns="http://www.w3.org/2000/svg"
   xmlns:sodipodi="http://sodipodi.sourceforge.net/DTD/sodipodi-0.dtd"
   xmlns:inkscape="http://www.inkscape.org/namespaces/inkscape"
   width="256.01111"
   height="256.56815"
   id="svg2"
   version="1.1"
   inkscape:version="0.48.3.1 r9886"
   sodipodi:docname="drawing.svg">
  <defs
     id="defs4" />
  <sodipodi:namedview
     id="base"
     pagecolor="#ffffff"
     bordercolor="#666666"
     borderopacity="1.0"
     inkscape:pageopacity="0.0"
     inkscape:pageshadow="2"
     inkscape:zoom="0.19"
     inkscape:cx="68.804655"
     inkscape:cy="180.88137"
     inkscape:document-units="px"
     inkscape:current-layer="g3936"
     showgrid="false"
     inkscape:snap-grids="true"
     inkscape:window-width="1125"
     inkscape:window-height="864"
     inkscape:window-x="403"
     inkscape:window-y="24"
     inkscape:window-maximized="0"
     fit-margin-top="1"
     fit-margin-left="1"
     fit-margin-right="1"
     fit-margin-bottom="1" />
  <metadata
     id="metadata7">
    <rdf:RDF>
      <cc:Work
         rdf:about="">
        <dc:format>image/svg+xml</dc:format>
        <dc:type
           rdf:resource="http://purl.org/dc/dcmitype/StillImage" />
        <dc:title></dc:title>
      </cc:Work>
    </rdf:RDF>
  </metadata>
  <g
     inkscape:label="Layer 1"
     inkscape:groupmode="layer"
     id="layer1"
     transform="translate(-269.00248,-35.53125)">
    <g
       id="g4199"
       transform="translate(271.10697,665.87255)"
       style="opacity:0.5043478;fill:none;stroke:#000000;stroke-opacity:1;display:inline">
      <path
         sodipodi:nodetypes="cscscscscscccccsc"
         id="path3834-4"
         transform="translate(0,-192)"
         d="m 219.25,10 c 0,0 -24.25,9 -31.75,10.5 -7.5,1.5 -21,5.25 -21,5.25 0,0 -9.75,-4.25 -22,-8.5 -12.25,-4.25 -29.75,-5.5 -29.75,-5.5 0,0 -3.25,3.5 -22,8 -18.749997,4.5 -27.5,5.75 -27.5,5.75 0,0 -18.5,-9 -31.5,-11.5 -13,-2.5 -24,-2 -24.75,-1.75 0,0 7.5,13 11.75,27.75 C 25,54.75 27,65.5 27,65.5 l 51.46875,5.125 48.96875,-4 52.25,12.03125 C 190.07319,74.238496 231.80421,73.755785 235,65.5 c 0,0 -4.75,-15.25 -7.5,-29.75 C 224.75,21.25 219.25,10 219.25,10 z"
         style="fill:none;stroke:#000000;stroke-opacity:1"
         inkscape:connector-curvature="0" />
      <path
         sodipodi:nodetypes="cscccccsccccc"
         id="path3834-7-2"
         transform="translate(0,-192)"
         d="m 27,65.5 c 0,0 -5.5,12.75 -8.25,24.75 -2.75,12 -5.75,23 -5.75,23 l 50.96875,16.375 53.71875,-15.75 52.25,17.53125 C 186.30214,127.14964 202.33444,122.28803 218,116 c 0,0 1.75,-10.5 6.75,-23.75 C 229.75,79 235,65.5 235,65.5 c -3.19579,8.25579 -44.92681,8.7385 -55.3125,13.15625 l -52.25,-12.03125 -47.96875,4 L 27,65.5 z"
         style="fill:none;stroke:#000000;stroke-opacity:1"
         inkscape:connector-curvature="0" />
      <path
         id="path3834-7-26"
         transform="translate(0,-192)"
         d="m 231.75,165.5 c -17.89941,7.67118 -35.94319,14.90405 -54.3125,21.40625 l -52.25,-18.53125 -50.21875,9 L 26,167.5 c 0,0 -4,10.25 -7.5,24.25 -3.5,14 -5,30.75 -5,30.75 0,0 9.25,-2 28.5,1.25 19.25,3.25 32.25,6 32.25,6 0,0 12.750003,-2.75 24,-6.25 11.25,-3.5 16.25,-6.5 16.25,-6.5 0,0 5.5,0.5 22.5,6.25 17,5.75 29.25,8.5 29.25,8.5 0,0 13,-2.75 26,-5.75 13,-3 26.5,-8 26.5,-8 0,0 -0.75,-5 4.25,-24.5 5,-19.5 8.75,-28 8.75,-28 z"
         style="fill:none;stroke:#000000;stroke-opacity:1"
         inkscape:connector-curvature="0" />
      <path
         sodipodi:nodetypes="cscccccsccccc"
         id="path3834-7-26-0"
         transform="translate(0,-192)"
         d="m 13,113.25 c 0,0 5.75,16 9.25,30 3.5,14 3.75,24.25 3.75,24.25 l 48.96875,9.875 50.21875,-9 52.25,18.53125 c 18.36931,-6.5022 36.41309,-13.73507 54.3125,-21.40625 0,0 -0.5,-4.5 -3.75,-19.75 C 224.75,130.5 218,116 218,116 c -15.66556,6.28803 -31.69786,11.14964 -48.0625,15.40625 L 117.6875,113.875 63.96875,129.625 13,113.25 z"
         style="fill:none;stroke:#000000;stroke-opacity:1"
         inkscape:connector-curvature="0" />
    </g>
    <g
       id="g4205"
       style="opacity:0.52173911;fill:none;stroke:#000000;stroke-opacity:1;display:inline"
       transform="translate(271.10697,485.87255)">
      <path
         sodipodi:nodetypes="ccscscscscscccccsc"
         id="path3834-2"
         d="M 13.71875,0.03125 C 10.989746,0.02425 9.28125,0.15625 9,0.25 9,0.25 16.5,13.25 20.75,28 25,42.75 27,53.5 27,53.5 c 0,0 -5.5,12.75 -8.25,24.75 -2.75,12 -5.75,23 -5.75,23 0,0 5.75,16 9.25,30 3.5,14 3.75,24.25 3.75,24.25 0,0 -4,10.25 -7.5,24.25 -3.5,14 -5,30.75 -5,30.75 0,0 9.25,-2 28.5,1.25 19.25,3.25 32.25,6 32.25,6 L 75.75,164.5 63.5,118 79.5,58.25 C 77.279793,42.77003 70.432295,28.20354 65.25,13.5 65.25,13.5 46.75,4.5 33.75,2 25.625,0.4375 18.26709,0.04346 13.71875,0.03125 z"
         style="fill:none;stroke:#000000;stroke-opacity:1"
         inkscape:connector-curvature="0" />
      <path
         sodipodi:nodetypes="cscccccsccccc"
         id="path3834-6-2"
         d="m 114.75,-0.25 c 0,0 -3.25,3.5 -22,8 -18.75,4.5 -27.5,5.75 -27.5,5.75 5.182295,14.70354 12.029793,29.27003 14.25,44.75 l -16,59.75 12.25,46.5 -1.5,53.25 c 0,0 12.75,-2.75 24,-6.25 C 109.5,208 114.5,205 114.5,205 l 11.25,-48.5 -8.25,-54.25 11.75,-45 c -3.43969,-9.72678 -8.06447,-56.92976 -14.5,-57.5 z"
         style="fill:none;stroke:#000000;stroke-opacity:1"
         inkscape:connector-curvature="0" />
      <path
         id="path3834-6-6"
         d="m 219.25,-2 c 0,0 -24.25,9 -31.75,10.5 -7.5,1.5 -21,5.25 -21,5.25 4.92395,-1.35833 11.43679,45.39247 14.25,52.25 l -11.25,53.25 9.5,55 -12.75,45.5 c 0,0 13,-2.75 26,-5.75 13,-3 26.5,-8 26.5,-8 0,0 -0.75,-5 4.25,-24.5 5,-19.5 8.75,-28 8.75,-28 0,0 -0.5,-4.5 -3.75,-19.75 C 224.75,118.5 218,104 218,104 c 0,0 1.75,-10.5 6.75,-23.75 C 229.75,67 235,53.5 235,53.5 c 0,0 -4.75,-15.25 -7.5,-29.75 C 224.75,9.25 219.25,-2 219.25,-2 z"
         style="fill:none;stroke:#000000;stroke-opacity:1"
         sodipodi:nodetypes="cscccccscscscscsc"
         inkscape:connector-curvature="0" />
      <path
         sodipodi:nodetypes="cccccscccccsc"
         id="path3834-6-6-9"
         d="m 114.75,-0.25 c 6.43553,0.57024 11.06031,47.77322 14.5,57.5 l -11.75,45 8.25,53.25 -11.25,49.5 c 0,0 5.5,0.5 22.5,6.25 17,5.75 29.25,8.5 29.25,8.5 l 12.75,-45.5 -9.5,-55 L 180.75,66 c -2.81321,-6.85753 -9.32605,-53.60833 -14.25,-52.25 0,0 -9.75,-4.25 -22,-8.5 -12.25,-4.25 -29.75,-5.5 -29.75,-5.5 z"
         style="fill:none;stroke:#000000;stroke-opacity:1"
         inkscape:connector-curvature="0" />
    </g>
    <path
       sodipodi:nodetypes="csssscc"
       inkscape:connector-curvature="0"
       id="path3820"
       d="m -28.470252,351.23824 0,149.57071 c 0,32.36983 -10.05799,58.42929 -22.55154,58.42929 l -14.7119,0 c -12.49355,0 -22.55154,-26.05946 -22.55154,-58.42929 l 0,-149.57071 c 0.42347,0.49234 59.81498,0 59.81498,0 z"
       style="fill:#010100;fill-opacity:1;stroke-width:1;stroke-linejoin:round;stroke-miterlimit:4" />
    <path
       transform="matrix(1.780466,0,0,1.780466,-745.34404,-357.20867)"
       d="m 453.22579,329.37833 a 67.338707,67.338707 0 1 1 -134.67741,0 67.338707,67.338707 0 1 1 134.67741,0 z"
       sodipodi:ry="67.338707"
       sodipodi:rx="67.338707"
       sodipodi:cy="329.37833"
       sodipodi:cx="385.88708"
       id="path3822"
       style="fill:none;stroke:#000000;stroke-width:11.35176945;stroke-linejoin:round;stroke-miterlimit:4;stroke-opacity:1;stroke-dasharray:none"
       sodipodi:type="arc" />
    <path
       style="fill:none;stroke:#000000;stroke-width:3;stroke-miterlimit:4;stroke-opacity:1;stroke-dasharray:none"
       d="m 490.36855,483.87295 c 0,0 -24.25,9 -31.75,10.5 -7.5,1.5 -21,5.25 -21,5.25 0,0 -9.75,-4.25 -22,-8.5 -12.25,-4.25 -29.75,-5.5 -29.75,-5.5 0,0 -3.25,3.5 -22,8 -18.75,4.5 -27.5,5.75 -27.5,5.75 0,0 -18.5,-9 -31.5,-11.5 -8.125,-1.5625 -15.48291,-1.9565 -20.03125,-1.9688 -2.729,-0.01 -4.4375,0.125 -4.71875,0.2188 0,0 7.5,13 11.75,27.75 4.25,14.75 6.25,25.5 6.25,25.5 0,0 -5.5,12.75 -8.25,24.75 -2.75,12 -5.75,23 -5.75,23 0,0 5.75,16 9.25,30 3.5,14 3.75,24.25 3.75,24.25 0,0 -4,10.25 -7.5,24.25 -3.5,14 -5,30.75 -5,30.75 0,0 9.25,-2 28.5,1.25 19.25,3.25 32.25,6 32.25,6 0,0 12.75,-2.75 24,-6.25 11.25,-3.5 16.25,-6.5 16.25,-6.5 0,0 5.5,0.5 22.5,6.25 17,5.75 29.25,8.5 29.25,8.5 0,0 13,-2.75 26,-5.75 13,-3 26.5,-8 26.5,-8 0,0 -0.75,-5 4.25,-24.5 5,-19.5 8.75,-28 8.75,-28 0,0 -0.5,-4.5 -3.75,-19.75 -3.25,-15.25 -10,-29.75 -10,-29.75 0,0 1.75,-10.5 6.75,-23.75 5,-13.25 10.25,-26.75 10.25,-26.75 0,0 -4.75,-15.25 -7.5,-29.75 -2.75,-14.5 -8.25,-25.75 -8.25,-25.75 z"
       id="path3889"
       inkscape:connector-curvature="0" />
    <g
       style="opacity:0.5043478;fill:none;stroke:#000000;stroke-width:2.50802755;stroke-miterlimit:4;stroke-opacity:1;stroke-dasharray:none;display:inline"
       transform="matrix(0.89700929,0,0,0.89700929,309.94031,202.60447)"
       id="g3916">
      <path
         inkscape:connector-curvature="0"
         style="fill:none;stroke:#000000;stroke-width:2.50802755;stroke-miterlimit:4;stroke-opacity:1;stroke-dasharray:none"
         d="m 219.25,10 c 0,0 -24.25,9 -31.75,10.5 -7.5,1.5 -21,5.25 -21,5.25 0,0 -9.75,-4.25 -22,-8.5 -12.25,-4.25 -29.75,-5.5 -29.75,-5.5 0,0 -3.25,3.5 -22,8 -18.749997,4.5 -27.5,5.75 -27.5,5.75 0,0 -18.5,-9 -31.5,-11.5 -13,-2.5 -24,-2 -24.75,-1.75 0,0 7.5,13 11.75,27.75 C 25,54.75 27,65.5 27,65.5 l 51.46875,5.125 48.96875,-4 52.25,12.03125 C 190.07319,74.238496 231.80421,73.755785 235,65.5 c 0,0 -4.75,-15.25 -7.5,-29.75 C 224.75,21.25 219.25,10 219.25,10 z"
         transform="translate(0,-192)"
         id="path3918"
         sodipodi:nodetypes="cscscscscscccccsc" />
      <path
         inkscape:connector-curvature="0"
         style="fill:none;stroke:#000000;stroke-width:2.50802755;stroke-miterlimit:4;stroke-opacity:1;stroke-dasharray:none"
         d="m 27,65.5 c 0,0 -5.5,12.75 -8.25,24.75 -2.75,12 -5.75,23 -5.75,23 l 50.96875,16.375 53.71875,-15.75 52.25,17.53125 C 186.30214,127.14964 202.33444,122.28803 218,116 c 0,0 1.75,-10.5 6.75,-23.75 C 229.75,79 235,65.5 235,65.5 c -3.19579,8.25579 -44.92681,8.7385 -55.3125,13.15625 l -52.25,-12.03125 -47.96875,4 L 27,65.5 z"
         transform="translate(0,-192)"
         id="path3920"
         sodipodi:nodetypes="cscccccsccccc" />
      <path
         inkscape:connector-curvature="0"
         style="fill:none;stroke:#000000;stroke-width:2.50802755;stroke-miterlimit:4;stroke-opacity:1;stroke-dasharray:none"
         d="m 231.75,165.5 c -17.89941,7.67118 -35.94319,14.90405 -54.3125,21.40625 l -52.25,-18.53125 -50.21875,9 L 26,167.5 c 0,0 -4,10.25 -7.5,24.25 -3.5,14 -5,30.75 -5,30.75 0,0 9.25,-2 28.5,1.25 19.25,3.25 32.25,6 32.25,6 0,0 12.750003,-2.75 24,-6.25 11.25,-3.5 16.25,-6.5 16.25,-6.5 0,0 5.5,0.5 22.5,6.25 17,5.75 29.25,8.5 29.25,8.5 0,0 13,-2.75 26,-5.75 13,-3 26.5,-8 26.5,-8 0,0 -0.75,-5 4.25,-24.5 5,-19.5 8.75,-28 8.75,-28 z"
         transform="translate(0,-192)"
         id="path3922" />
      <path
         inkscape:connector-curvature="0"
         style="fill:none;stroke:#000000;stroke-width:2.50802755;stroke-miterlimit:4;stroke-opacity:1;stroke-dasharray:none"
         d="m 13,113.25 c 0,0 5.75,16 9.25,30 3.5,14 3.75,24.25 3.75,24.25 l 48.96875,9.875 50.21875,-9 52.25,18.53125 c 18.36931,-6.5022 36.41309,-13.73507 54.3125,-21.40625 0,0 -0.5,-4.5 -3.75,-19.75 C 224.75,130.5 218,116 218,116 c -15.66556,6.28803 -31.69786,11.14964 -48.0625,15.40625 L 117.6875,113.875 63.96875,129.625 13,113.25 z"
         transform="translate(0,-192)"
         id="path3924"
         sodipodi:nodetypes="cscccccsccccc" />
    </g>
    <g
       transform="matrix(0.89700929,0,0,0.89700929,309.94031,41.142802)"
       style="opacity:0.52173911;fill:none;stroke:#000000;stroke-width:2.50802755;stroke-miterlimit:4;stroke-opacity:1;stroke-dasharray:none;display:inline"
       id="g3926">
      <path
         inkscape:connector-curvature="0"
         style="fill:none;stroke:#000000;stroke-width:2.50802755;stroke-miterlimit:4;stroke-opacity:1;stroke-dasharray:none"
         d="M 13.71875,0.03125 C 10.989746,0.02425 9.28125,0.15625 9,0.25 9,0.25 16.5,13.25 20.75,28 25,42.75 27,53.5 27,53.5 c 0,0 -5.5,12.75 -8.25,24.75 -2.75,12 -5.75,23 -5.75,23 0,0 5.75,16 9.25,30 3.5,14 3.75,24.25 3.75,24.25 0,0 -4,10.25 -7.5,24.25 -3.5,14 -5,30.75 -5,30.75 0,0 9.25,-2 28.5,1.25 19.25,3.25 32.25,6 32.25,6 L 75.75,164.5 63.5,118 79.5,58.25 C 77.279793,42.77003 70.432295,28.20354 65.25,13.5 65.25,13.5 46.75,4.5 33.75,2 25.625,0.4375 18.26709,0.04346 13.71875,0.03125 z"
         id="path3928"
         sodipodi:nodetypes="ccscscscscscccccsc" />
      <path
         inkscape:connector-curvature="0"
         style="fill:none;stroke:#000000;stroke-width:2.50802755;stroke-miterlimit:4;stroke-opacity:1;stroke-dasharray:none"
         d="m 114.75,-0.25 c 0,0 -3.25,3.5 -22,8 -18.75,4.5 -27.5,5.75 -27.5,5.75 5.182295,14.70354 12.029793,29.27003 14.25,44.75 l -16,59.75 12.25,46.5 -1.5,53.25 c 0,0 12.75,-2.75 24,-6.25 C 109.5,208 114.5,205 114.5,205 l 11.25,-48.5 -8.25,-54.25 11.75,-45 c -3.43969,-9.72678 -8.06447,-56.92976 -14.5,-57.5 z"
         id="path3930"
         sodipodi:nodetypes="cscccccsccccc" />
      <path
         inkscape:connector-curvature="0"
         sodipodi:nodetypes="cscccccscscscscsc"
         style="fill:none;stroke:#000000;stroke-width:2.50802755;stroke-miterlimit:4;stroke-opacity:1;stroke-dasharray:none"
         d="m 219.25,-2 c 0,0 -24.25,9 -31.75,10.5 -7.5,1.5 -21,5.25 -21,5.25 4.92395,-1.35833 11.43679,45.39247 14.25,52.25 l -11.25,53.25 9.5,55 -12.75,45.5 c 0,0 13,-2.75 26,-5.75 13,-3 26.5,-8 26.5,-8 0,0 -0.75,-5 4.25,-24.5 5,-19.5 8.75,-28 8.75,-28 0,0 -0.5,-4.5 -3.75,-19.75 C 224.75,118.5 218,104 218,104 c 0,0 1.75,-10.5 6.75,-23.75 C 229.75,67 235,53.5 235,53.5 c 0,0 -4.75,-15.25 -7.5,-29.75 C 224.75,9.25 219.25,-2 219.25,-2 z"
         id="path3932" />
      <path
         inkscape:connector-curvature="0"
         style="fill:none;stroke:#000000;stroke-width:2.50802755;stroke-miterlimit:4;stroke-opacity:1;stroke-dasharray:none"
         d="m 114.75,-0.25 c 6.43553,0.57024 11.06031,47.77322 14.5,57.5 l -11.75,45 8.25,53.25 -11.25,49.5 c 0,0 5.5,0.5 22.5,6.25 17,5.75 29.25,8.5 29.25,8.5 l 12.75,-45.5 -9.5,-55 L 180.75,66 c -2.81321,-6.85753 -9.32605,-53.60833 -14.25,-52.25 0,0 -9.75,-4.25 -22,-8.5 -12.25,-4.25 -29.75,-5.5 -29.75,-5.5 z"
         id="path3934"
         sodipodi:nodetypes="cccccscccccsc" />
    </g>
    <path
       inkscape:connector-curvature="0"
       id="path3942"
       d="m 506.61999,39.349107 c 0,0 -21.75248,8.073083 -28.48006,9.418596 -6.72756,1.345515 -18.83717,4.709298 -18.83717,4.709298 0,0 -8.74586,-3.812288 -19.73421,-7.624577 -10.98837,-3.812291 -26.68605,-4.933552 -26.68605,-4.933552 0,0 -2.91525,3.139532 -19.73419,7.176076 -16.81892,4.036541 -24.66774,5.157801 -24.66774,5.157801 0,0 -16.59469,-8.073083 -28.25581,-10.315605 -7.28821,-1.401578 -13.8883,-1.755034 -17.96822,-1.765987 -2.44793,-0.0063 -3.98049,0.112137 -4.23277,0.196219 0,0 6.72758,11.661123 10.53987,24.892007 3.81228,13.230892 5.6063,22.873726 5.6063,22.873726 0,0 -4.93354,11.436891 -7.40032,22.200981 -2.46677,10.76413 -5.15779,20.63123 -5.15779,20.63123 0,0 5.15779,14.35215 8.29731,26.91027 3.13955,12.55814 3.36381,21.75247 3.36381,21.75247 0,0 -3.58805,9.19436 -6.72758,21.75248 -3.13952,12.55814 -4.48505,27.58304 -4.48505,27.58304 0,0 8.29734,-1.79402 25.56476,1.12128 17.26744,2.91526 28.92856,5.38204 28.92856,5.38204 0,0 11.43686,-2.46678 21.52823,-5.6063 10.09135,-3.13955 14.57639,-5.83056 14.57639,-5.83056 0,0 4.93356,0.44849 20.18272,5.60629 15.24915,5.15781 26.23751,7.62459 26.23751,7.62459 0,0 11.66112,-2.46678 23.32223,-5.15781 11.66114,-2.69103 23.77076,-7.17606 23.77076,-7.17606 0,0 -0.67276,-4.48507 3.81228,-21.97675 4.48506,-17.49168 7.84883,-25.11625 7.84883,-25.11625 0,0 -0.44851,-4.03654 -3.36377,-17.71593 -2.91529,-13.67939 -8.9701,-26.68601 -8.9701,-26.68601 0,0 1.56977,-9.41863 6.05481,-21.30399 4.48506,-11.88538 9.19436,-23.995011 9.19436,-23.995011 0,0 -4.2608,-13.679384 -6.72757,-26.686015 -2.46679,-13.006633 -7.40033,-23.097987 -7.40033,-23.097987 z"
       style="fill:none;stroke:#000000;stroke-width:4.4994483;stroke-miterlimit:4;stroke-opacity:1;stroke-dasharray:none" />
  </g>
  <g
     inkscape:groupmode="layer"
     id="layer2"
     inkscape:label="mag"
     style="display:inline"
     transform="translate(-269.00248,-35.53125)">
    <g
       id="g3824"
       transform="matrix(0.41861822,0.41861822,-0.41861822,0.41861822,473.60266,256.61308)">
      <path
         sodipodi:nodetypes="csssscc"
         inkscape:connector-curvature="0"
         id="rect2985"
         d="m 359.81498,544.36218 0,149.57071 c 0,32.36983 -10.05799,58.42929 -22.55154,58.42929 l -14.7119,0 C 310.05799,752.36218 300,726.30272 300,693.93289 l 0,-149.57071 c 0.42347,0.49234 59.81498,0 59.81498,0 z"
         style="fill:#010100;fill-opacity:1;stroke-width:1;stroke-linejoin:round;stroke-miterlimit:4" />
      <path
         transform="matrix(1.780466,0,0,1.780466,-357.05884,-164.08473)"
         d="m 453.22579,329.37833 c 0,37.19014 -30.14856,67.3387 -67.33871,67.3387 -37.19014,0 -67.3387,-30.14856 -67.3387,-67.3387 0,-37.19014 30.14856,-67.33871 67.3387,-67.33871 37.19015,0 67.33871,30.14857 67.33871,67.33871 z"
         sodipodi:ry="67.338707"
         sodipodi:rx="67.338707"
         sodipodi:cy="329.37833"
         sodipodi:cx="385.88708"
         id="path2989"
         style="fill:none;stroke:#000000;stroke-width:11.35176945;stroke-linejoin:round;stroke-miterlimit:4;stroke-opacity:1;stroke-dasharray:none"
         sodipodi:type="arc" />
    </g>
    <g
       transform="matrix(0.42210285,0.42210285,-0.42210285,0.42210285,453.21901,-170.62693)"
       id="g3936">
      <path
         style="fill:#010100;fill-opacity:1;stroke-width:1;stroke-linejoin:round;stroke-miterlimit:4"
         d="m 363.54929,516.94223 0,168.24642 c 0,36.41159 -11.31385,65.72489 -25.36736,65.72489 l -16.54888,0 c -14.05351,0 -25.36736,-29.3133 -25.36736,-65.72489 l 0,-168.24642 c 0.47635,0.55381 67.2836,0 67.2836,0 z"
         id="path3938"
         inkscape:connector-curvature="0"
         sodipodi:nodetypes="csssscc" />
      <path
         sodipodi:type="arc"
         style="fill:none;stroke:#000000;stroke-width:16.72876079;stroke-linejoin:round;stroke-miterlimit:4;stroke-opacity:1;stroke-dasharray:none"
         id="path3940"
         sodipodi:cx="385.88708"
         sodipodi:cy="329.37833"
         sodipodi:rx="67.338707"
         sodipodi:ry="67.338707"
         d="m 453.22579,329.37833 c 0,37.19014 -30.14856,67.3387 -67.33871,67.3387 -37.19014,0 -67.3387,-30.14856 -67.3387,-67.3387 0,-37.19014 30.14856,-67.33871 67.3387,-67.33871 37.19015,0 67.33871,30.14857 67.33871,67.33871 z"
         transform="matrix(2.0027786,0,0,2.0027786,-442.83487,-279.96281)" />
    </g>
  </g>
</svg>
