<?xml version="1.0" encoding="UTF-8" standalone="no"?>
<!-- Generator: Adobe Illustrator 19.0.0, SVG Export Plug-In . SVG Version: 6.00 Build 0)  -->

<svg
   xmlns:dc="http://purl.org/dc/elements/1.1/"
   xmlns:cc="http://creativecommons.org/ns#"
   xmlns:rdf="http://www.w3.org/1999/02/22-rdf-syntax-ns#"
   xmlns:svg="http://www.w3.org/2000/svg"
   xmlns="http://www.w3.org/2000/svg"
   xmlns:sodipodi="http://sodipodi.sourceforge.net/DTD/sodipodi-0.dtd"
   xmlns:inkscape="http://www.inkscape.org/namespaces/inkscape"
   version="1.1"
   id="Capa_1"
   x="0px"
   y="0px"
   viewBox="0 0 1065.8001 275.8741"
   xml:space="preserve"
   sodipodi:docname="logo-geocamp-valencia.svg"
   width="1065.8"
   height="275.87411"
   inkscape:version="0.92.3 (2405546, 2018-03-11)"
   inkscape:export-filename="/home/jsanz/src/osgeo/geocamp/2019/assets/imgs/logo-geocamp-azul-valencia.png"
   inkscape:export-xdpi="36"
   inkscape:export-ydpi="36"><metadata
   id="metadata848"><rdf:RDF><cc:Work
       rdf:about=""><dc:format>image/svg+xml</dc:format><dc:type
         rdf:resource="http://purl.org/dc/dcmitype/StillImage" /><dc:title></dc:title></cc:Work></rdf:RDF></metadata><defs
   id="defs846" /><sodipodi:namedview
   pagecolor="#ffffff"
   bordercolor="#666666"
   borderopacity="1"
   objecttolerance="10"
   gridtolerance="10"
   guidetolerance="10"
   inkscape:pageopacity="0"
   inkscape:pageshadow="2"
   inkscape:window-width="1916"
   inkscape:window-height="1149"
   id="namedview844"
   showgrid="false"
   fit-margin-top="10"
   fit-margin-left="10"
   fit-margin-right="10"
   fit-margin-bottom="10"
   inkscape:zoom="0.99130897"
   inkscape:cx="566.45471"
   inkscape:cy="72.572254"
   inkscape:window-x="0"
   inkscape:window-y="49"
   inkscape:window-maximized="0"
   inkscape:current-layer="Capa_1" />
<style
   type="text/css"
   id="style815">
	.st0{fill:#022362;}
	.st1{fill:#D31A19;}
	.st2{font-family:'BigJohn';}
	.st3{font-size:81.6675px;}
</style>
<g
   id="XMLID_125_"
   transform="translate(10,10)">
	<path
   id="XMLID_155_"
   class="st0"
   d="m 70.9,65.6 h 71.3 v 5.3 c 0,39.1 -32.1,70.9 -71.3,70.9 C 31.7,141.8 0,110 0,70.9 0,31.8 31.8,0 70.9,0 90.4,0 108,7.8 120.8,20.4 l -2.6,2.5 C 106.1,11 89.4,3.6 70.9,3.6 33.7,3.6 3.6,33.7 3.6,70.9 c 0,37.2 30.1,67.3 67.3,67.3 37.2,0 67.3,-31 67.3,-67.3 V 69.6 H 70.9 Z"
   inkscape:connector-curvature="0"
   style="fill:#022362" />
	<path
   id="XMLID_153_"
   class="st0"
   d="m 171.5,0 h 88.3 v 3.8 h -84.7 v 63.5 h 78.8 v 3.8 H 175.1 V 138 h 84.7 v 3.8 h -88.3 z"
   inkscape:connector-curvature="0"
   style="fill:#022362" />
	<path
   id="XMLID_151_"
   class="st0"
   d="M 542.2,46.9 C 536.3,41 528,37.6 518.4,37.6 c -19.3,0 -33.3,14 -33.3,33.3 0,19.3 14,33.3 33.3,33.3 9.6,0 18,-3.4 23.8,-9.5 l 26.5,26.1 c -12.9,12.9 -30.6,21 -50.3,21 -39.1,0 -70.9,-31.8 -70.9,-70.9 0,-39.1 31.8,-70.9 70.9,-70.9 19.5,0 37.1,7.8 49.9,20.6 z"
   inkscape:connector-curvature="0"
   style="fill:#022362" />
	<path
   id="XMLID_149_"
   class="st0"
   d="M 830.9,52.6 888.5,0 h 16.8 V 141.8 H 867.9 V 69 l -37.1,33.8 -37.2,-33.7 v 72.6 H 756.2 V 0 H 773 Z"
   inkscape:connector-curvature="0"
   style="fill:#022362" />
	<path
   id="XMLID_146_"
   class="st0"
   d="m 933.9,0 h 59.7 c 28.7,0 52.2,23.4 52.2,52.2 0,28.5 -23.3,52 -51.4,52 h -23.3 v 37.6 h -37.2 z m 37.3,72 h 23.1 c 11.3,0 20.4,-8.9 20.4,-20.2 0,-11.3 -9.1,-20.4 -20.4,-20.4 h -23.1 z"
   inkscape:connector-curvature="0"
   style="fill:#022362" />
	<g
   id="XMLID_134_">
		<g
   id="XMLID_141_">
			<g
   id="XMLID_142_">
				<path
   id="XMLID_143_"
   class="st0"
   d="m 713.6,85.7 c -7.8,0 -17,-1.8 -19.6,-6.9 -1.6,-3.1 0,-6.4 1.6,-8.7 5.9,-8.2 9,-17.3 9,-26.4 0,-23.8 -19.4,-43.3 -43.3,-43.3 -23.8,0 -43.3,19.4 -43.3,43.3 0,9.1 3.1,18.2 9,26.4 1.6,2.3 3.2,5.6 1.6,8.7 -2.6,5.1 -11.9,6.9 -19.6,6.9 -8.3,0 -15,6.7 -15,15 0,8.3 6.7,15 15,15 4.3,0 10.3,-1 15.4,-2.4 -1.4,1 -2.8,2.2 -4.2,3.1 -5.9,4.2 -7.8,11.1 -4.9,17.8 1.7,4 5,7.1 9,8.5 3.7,1.3 7.6,1.1 11,-0.7 10.1,-5.3 16.6,-14.3 21.4,-20.9 1.4,-1.9 3.2,-4.4 4.4,-5.6 1.2,1.2 3,3.7 4.4,5.6 4.8,6.6 11.3,15.5 21.4,20.9 2,1 4.1,1.6 6.3,1.6 1.6,0 3.2,-0.3 4.8,-0.8 4.1,-1.4 7.3,-4.5 9,-8.5 2.9,-6.7 1,-13.6 -4.9,-17.8 -1.4,-1 -2.8,-2.1 -4.2,-3.1 5.1,1.3 11.1,2.4 15.4,2.4 8.3,0 15,-6.7 15,-15 0,-8.3 -6.4,-15.1 -14.7,-15.1 z m 0,21.3 c -5.3,0 -15,-2.2 -19.2,-4.1 -3.8,-1.6 -8.1,-0.2 -10,3.3 -1.9,3.5 -0.8,7.5 2.7,9.9 1,0.7 2.7,2 4.5,3.4 1.7,1.3 3.7,2.8 5.6,4.2 3.2,2.3 2.8,5.2 2,7.2 -0.7,1.7 -2.2,3.1 -3.9,3.7 -1,0.3 -2.5,0.6 -4,-0.2 -8.3,-4.4 -14.1,-12.4 -18.4,-18.3 -4.1,-5.7 -7.1,-9.7 -11.5,-9.7 -4.4,0 -7.4,4.1 -11.5,9.7 -4.3,5.9 -10.1,13.9 -18.4,18.3 -1.5,0.8 -3,0.6 -4,0.2 -1.7,-0.6 -3.2,-2 -3.9,-3.7 -0.9,-2 -1.2,-4.9 2,-7.2 1.9,-1.3 3.8,-2.8 5.6,-4.2 1.8,-1.4 3.5,-2.7 4.5,-3.4 3.5,-2.3 4.6,-6.4 2.7,-9.9 -1.9,-3.5 -6.2,-4.9 -10,-3.3 -4.2,1.8 -13.9,4.1 -19.2,4.1 -3.5,0 -6.3,-2.8 -6.3,-6.3 0,-3.5 2.8,-6.3 6.3,-6.3 13.6,0 23.6,-4.3 27.4,-11.7 2.8,-5.4 1.9,-11.9 -2.3,-17.8 -4.9,-6.8 -7.4,-14 -7.4,-21.3 0,-19 15.5,-34.5 34.5,-34.5 19,0 34.5,15.5 34.5,34.5 0,7.4 -2.5,14.5 -7.4,21.3 -4.3,5.9 -5.1,12.4 -2.3,17.8 3.8,7.4 13.8,11.7 27.4,11.7 3.5,0 6.3,2.8 6.3,6.3 0,3.5 -2.8,6.3 -6.3,6.3 z"
   inkscape:connector-curvature="0"
   style="fill:#022362" />
			</g>
		</g>
		<g
   id="XMLID_138_">
			<g
   id="XMLID_139_">
				<path
   id="XMLID_140_"
   class="st0"
   d="m 646.8,42.8 c -3.2,0 -5.8,2.6 -5.8,5.8 0,3.2 2.6,5.8 5.8,5.8 3.2,0 5.8,-2.6 5.8,-5.8 0,-3.2 -2.6,-5.8 -5.8,-5.8 z"
   inkscape:connector-curvature="0"
   style="fill:#022362" />
			</g>
		</g>
		<g
   id="XMLID_135_">
			<g
   id="XMLID_136_">
				<path
   id="XMLID_137_"
   class="st0"
   d="m 676,42.8 c -3.2,0 -5.8,2.6 -5.8,5.9 0,3.3 2.6,5.9 5.8,5.9 3.2,0 5.8,-2.6 5.8,-5.9 0,-3.3 -2.6,-5.9 -5.8,-5.9 z"
   inkscape:connector-curvature="0"
   style="fill:#022362" />
			</g>
		</g>
	</g>
	<g
   id="XMLID_126_">
		<path
   id="XMLID_127_"
   class="st0"
   d="m 354.5,1.4 c -28.3,0 -53.9,16.9 -65,42.9 l -0.9,0.3 0.3,1 c -14.7,36.2 2.8,77.4 38.9,92 8.4,3.4 17.5,5.2 26.6,5.2 39,0 70.7,-31.6 70.7,-70.7 0.1,-39 -31.6,-70.7 -70.6,-70.7 z m 55.5,106.3 -3.6,-3.6 v -8.5 c 0,-0.4 -0.1,-0.7 -0.2,-1.1 L 397,76.1 v -8.9 c 0,-0.8 -0.4,-1.5 -1,-2 l -7.1,-4.7 C 388.3,60.1 387.7,60 387,60.2 l -8.7,2.2 -14.5,-6.2 -2,-14 5.5,-5.5 h 11.9 l 4,6 c 0.4,0.5 0.9,0.9 1.6,1 l 14.1,2.4 c 0.4,0.1 0.8,0 1.1,-0.1 l 13,-4.3 c 10.9,21 9.8,46.2 -3,66 z m -9.8,-83.1 -3.8,2.6 -10.7,-2.2 -6.9,-2.3 c -0.4,-0.1 -0.9,-0.2 -1.3,-0.1 l -8.8,2.2 -3.8,-1.3 2.8,-5.7 h 8 c 0.4,0 0.7,-0.1 1.1,-0.2 l 8.2,-4.1 c 5.5,3 10.7,6.7 15.2,11.1 z m -71.5,-13.2 5.7,3.8 c 0.3,0.2 0.6,0.3 0.9,0.4 l 11.4,1.9 -1.1,3.3 -6,2 c -0.5,0.2 -1,0.5 -1.3,1 l -6.7,11.2 -10.9,6.5 -16,2.3 c -1.2,0.2 -2,1.2 -2,2.3 v 7.1 c 0,0.6 0.2,1.2 0.7,1.7 l 4,4 v 4 L 297.6,56.4 294,45.8 C 300.8,30.3 313.2,18 328.7,11.4 Z m -6.7,77.2 -10.7,-2.1 -4,-7.9 v -5.5 l 8.8,-8.8 3.2,6.5 c 0.4,0.8 1.2,1.3 2.1,1.3 h 15.2 l 6.4,10.6 c 0.4,0.7 1.2,1.1 2,1.1 h 6.6 l -1.6,8.3 -8.9,8.9 c -0.4,0.4 -0.7,1 -0.7,1.7 v 5.9 l -8.5,6.4 c -0.6,0.4 -0.9,1.1 -0.9,1.9 v 8.5 l -2.9,-1 -4.1,-10.3 V 91 c -0.2,-1.2 -0.9,-2.1 -2,-2.4 z m -7.1,36.3 c -22.2,-16.7 -31.6,-45.5 -23.5,-72 l 2,5.9 c 0.2,0.5 0.5,0.9 0.9,1.2 l 11.7,7.8 -2.7,2.7 c -0.4,0.4 -0.7,1 -0.7,1.7 v 7.1 c 0,0.4 0.1,0.7 0.2,1.1 l 4.7,9.4 c 0.3,0.7 0.9,1.1 1.6,1.3 l 9.9,2 v 21.6 c 0,0.3 0.1,0.6 0.2,0.9 l 4.7,11.8 c 0.3,0.6 0.8,1.1 1.4,1.4 l 7.1,2.4 c 0.2,0.1 0.5,0.1 0.7,0.1 1.3,0 2.4,-1.1 2.4,-2.4 v -10.6 l 8.5,-6.4 c 0.6,-0.4 0.9,-1.1 0.9,-1.9 v -6.1 l 8.7,-8.7 c 0.3,-0.3 0.6,-0.7 0.6,-1.2 l 2.4,-11.8 c 0.3,-1.3 -0.6,-2.5 -1.8,-2.8 -0.2,0 -0.3,0 -0.5,0 h -8.1 L 340,68.5 c -0.4,-0.7 -1.2,-1.1 -2,-1.1 h -15 l -4,-8.1 c -0.3,-0.7 -1,-1.2 -1.7,-1.3 -0.7,-0.1 -1.5,0.1 -2,0.7 l -3.1,3 V 58 c 0,-0.6 -0.2,-1.2 -0.7,-1.7 l -4,-4 V 48.2 L 322,46.1 c 0.3,0 0.6,-0.2 0.9,-0.3 l 11.8,-7.1 c 0.3,-0.2 0.6,-0.5 0.8,-0.8 l 6.6,-11 6.2,-2.1 c 0.7,-0.2 1.3,-0.8 1.5,-1.5 l 2.4,-7.1 c 0.4,-1.2 -0.3,-2.6 -1.5,-3 -0.1,0 -0.2,-0.1 -0.3,-0.1 L 336.5,11 334.1,9.4 c 14.8,-4.8 30.9,-4.2 45.3,1.7 l -4.3,2.1 h -8.9 c -0.9,0 -1.7,0.5 -2.1,1.3 l -4.7,9.4 c -0.6,1.2 -0.1,2.6 1.1,3.2 0.1,0 0.2,0.1 0.3,0.1 l 7.1,2.4 c 0.4,0.1 0.9,0.2 1.3,0.1 l 8.8,-2.2 6.4,2.1 c 0.1,0 0.2,0.1 0.3,0.1 l 11.8,2.4 c 0.6,0.1 1.3,0 1.8,-0.3 l 5.4,-3.6 c 2.6,2.9 5,6.1 7.1,9.5 l -11.6,3.9 -12.6,-2.1 -4.1,-6.2 c -0.4,-0.7 -1.2,-1 -1.9,-1 h -14.1 c -0.6,0 -1.2,0.2 -1.7,0.7 l -7.1,7.1 c -0.5,0.5 -0.8,1.3 -0.7,2 l 2.4,16.5 c 0.1,0.8 0.7,1.5 1.4,1.8 l 16.5,7.1 c 0.5,0.2 1,0.2 1.5,0.1 l 8.4,-2.1 5.1,3.4 v 8.2 c 0,0.4 0.1,0.7 0.2,1.1 l 9.2,18.4 v 8.9 c 0,0.6 0.2,1.2 0.7,1.7 l 4.9,4.9 c -21.9,28.7 -63.3,34.6 -92.4,12.8 z"
   inkscape:connector-curvature="0"
   style="fill:#022362" />
	</g>
	<rect
   id="XMLID_159_"
   x="554.70001"
   y="66.099998"
   class="st0"
   width="11.8"
   height="11.8"
   style="fill:#022362" />
	<rect
   id="XMLID_158_"
   x="573.79999"
   y="66.099998"
   class="st0"
   width="11.8"
   height="11.8"
   style="fill:#022362" />
	<rect
   id="XMLID_157_"
   x="535.70001"
   y="66.099998"
   class="st0"
   width="11.8"
   height="11.8"
   style="fill:#022362" />
</g>
<path
   inkscape:connector-curvature="0"
   id="path970"
   style="font-style:normal;font-variant:normal;font-weight:bold;font-stretch:normal;font-size:medium;font-family:Montserrat;-inkscape-font-specification:'Montserrat, Bold';font-variant-ligatures:normal;font-variant-caps:normal;font-variant-numeric:normal;font-feature-settings:normal;text-align:start;writing-mode:lr-tb;text-anchor:start;fill:#c72b66;fill-opacity:1"
   d="m 491.45533,265.27679 20.53333,-52.26666 h -13.664 l -13.36533,38.45333 -13.36534,-38.45333 h -14.18666 l 20.30933,52.26666 z" /><path
   inkscape:connector-curvature="0"
   id="path972"
   style="font-style:normal;font-variant:normal;font-weight:bold;font-stretch:normal;font-size:medium;font-family:Montserrat;-inkscape-font-specification:'Montserrat, Bold';font-variant-ligatures:normal;font-variant-caps:normal;font-variant-numeric:normal;font-feature-settings:normal;text-align:start;writing-mode:lr-tb;text-anchor:start;fill:#022362;fill-opacity:1"
   d="m 547.74116,255.64479 3.73333,9.632 h 14.18667 l -22.02667,-52.26666 h -13.664 l -22.54933,52.26666 h 13.664 l 3.808,-9.632 z m -3.88267,-10.07999 h -15.08266 l 7.616,-19.33867 z" /><path
   inkscape:connector-curvature="0"
   id="path974"
   style="font-style:normal;font-variant:normal;font-weight:bold;font-stretch:normal;font-size:medium;font-family:Montserrat;-inkscape-font-specification:'Montserrat, Bold';font-variant-ligatures:normal;font-variant-caps:normal;font-variant-numeric:normal;font-feature-settings:normal;text-align:start;writing-mode:lr-tb;text-anchor:start;fill:#c72b66;fill-opacity:1"
   d="m 583.77016,254.15146 v -41.14133 h -13.29067 v 52.26666 h 35.46666 v -11.12533 z" /><path
   inkscape:connector-curvature="0"
   id="path976"
   style="font-style:normal;font-variant:normal;font-weight:bold;font-stretch:normal;font-size:medium;font-family:Montserrat;-inkscape-font-specification:'Montserrat, Bold';font-variant-ligatures:normal;font-variant-caps:normal;font-variant-numeric:normal;font-feature-settings:normal;text-align:start;writing-mode:lr-tb;text-anchor:start;fill:#022362;fill-opacity:1"
   d="m 653.25099,223.46346 v -10.45333 h -40.91733 v 52.26666 h 41.73867 v -10.45333 h -28.448 v -10.528 h 24.93866 v -10.45333 h -24.93866 v -10.37867 z" /><path
   inkscape:connector-curvature="0"
   id="path978"
   style="font-style:normal;font-variant:normal;font-weight:bold;font-stretch:normal;font-size:medium;font-family:Montserrat;-inkscape-font-specification:'Montserrat, Bold';font-variant-ligatures:normal;font-variant-caps:normal;font-variant-numeric:normal;font-feature-settings:normal;text-align:start;writing-mode:lr-tb;text-anchor:start;fill:#022362;fill-opacity:1"
   d="m 710.88083,265.27679 v -52.26666 h -12.39467 v 32.256 l -24.11733,-32.256 h -11.72267 v 52.26666 h 12.46933 v -32.18133 l 24.04267,32.18133 z" /><path
   inkscape:connector-curvature="0"
   id="path980"
   style="font-style:normal;font-variant:normal;font-weight:bold;font-stretch:normal;font-size:medium;font-family:Montserrat;-inkscape-font-specification:'Montserrat, Bold';font-variant-ligatures:normal;font-variant-caps:normal;font-variant-numeric:normal;font-feature-settings:normal;text-align:start;writing-mode:lr-tb;text-anchor:start;fill:#c72b66;fill-opacity:1"
   d="m 745.76183,212.56213 c -15.904,0 -27.92534,11.34933 -27.92534,26.432 0,15.30666 11.72267,26.88 27.47734,26.88 7.69066,0 15.97866,-3.808 21.57866,-9.55734 l -7.76533,-8.21333 c -3.65867,3.73333 -8.736,6.12267 -13.14133,6.12267 -8.288,0 -14.56,-6.64533 -14.56,-15.38133 0,-8.58667 6.272,-15.15734 14.56,-15.15734 4.62933,0 9.70666,2.61334 13.14133,6.79467 l 7.69067,-9.10933 c -5.22667,-5.376 -13.29067,-8.81067 -21.056,-8.81067 z" /><path
   inkscape:connector-curvature="0"
   id="path982"
   style="font-style:normal;font-variant:normal;font-weight:bold;font-stretch:normal;font-size:medium;font-family:Montserrat;-inkscape-font-specification:'Montserrat, Bold';font-variant-ligatures:normal;font-variant-caps:normal;font-variant-numeric:normal;font-feature-settings:normal;text-align:start;writing-mode:lr-tb;text-anchor:start;fill:#022362;fill-opacity:1"
   d="m 786.18683,265.27679 v -52.26666 h -13.29067 v 52.26666 z" /><path
   inkscape:connector-curvature="0"
   id="path984"
   style="font-style:normal;font-variant:normal;font-weight:bold;font-stretch:normal;font-size:medium;font-family:Montserrat;-inkscape-font-specification:'Montserrat, Bold';font-variant-ligatures:normal;font-variant-caps:normal;font-variant-numeric:normal;font-feature-settings:normal;text-align:start;writing-mode:lr-tb;text-anchor:start;fill:#022362;fill-opacity:1"
   d="m 831.38697,255.64479 3.73334,9.632 h 14.18666 l -22.02666,-52.26666 h -13.664 l -22.54934,52.26666 h 13.664 l 3.808,-9.632 z m -3.88266,-10.07999 h -15.08267 l 7.616,-19.33867 z" /><path
   inkscape:connector-curvature="0"
   id="path986"
   style="font-style:normal;font-variant:normal;font-weight:bold;font-stretch:normal;font-size:medium;font-family:Montserrat;-inkscape-font-specification:'Montserrat, Bold';font-variant-ligatures:normal;font-variant-caps:normal;font-variant-numeric:normal;font-feature-settings:normal;text-align:start;writing-mode:lr-tb;text-anchor:start;fill:#022362;fill-opacity:1"
   d="m 889.10081,212.4128 c -7.46667,0 -14.63467,2.912 -21.20534,7.84 l 5.00267,9.55733 c 4.77867,-4.10667 10.00533,-6.64533 14.26133,-6.64533 3.73334,0 5.89867,1.792 5.89867,4.77866 0,2.38934 -2.09067,5.89867 -5.00267,8.96 l -18.66666,19.78667 v 8.58666 h 39.12533 v -10.528 h -22.02667 l 10.60267,-11.27466 c 5.67467,-5.824 9.856,-11.72267 9.856,-17.39733 0,-8.288 -7.46667,-13.664 -17.84533,-13.664 z" /><path
   inkscape:connector-curvature="0"
   id="path988"
   style="font-style:normal;font-variant:normal;font-weight:bold;font-stretch:normal;font-size:medium;font-family:Montserrat;-inkscape-font-specification:'Montserrat, Bold';font-variant-ligatures:normal;font-variant-caps:normal;font-variant-numeric:normal;font-feature-settings:normal;text-align:start;writing-mode:lr-tb;text-anchor:start;fill:#022362;fill-opacity:1"
   d="m 937.30632,212.56213 c -14.93334,0 -23.22134,9.48267 -23.22134,26.50667 0,17.09866 8.288,26.58133 23.22134,26.58133 14.784,0 23.072,-9.48267 23.072,-26.58133 0,-17.024 -8.288,-26.50667 -23.072,-26.50667 z m 0,9.70667 c 6.57066,0 9.48266,4.85333 9.48266,16.8 0,11.94666 -2.912,16.87466 -9.48266,16.87466 -6.72,0 -9.55734,-4.928 -9.55734,-16.87466 0,-11.94667 2.83734,-16.8 9.55734,-16.8 z" /><path
   inkscape:connector-curvature="0"
   id="path990"
   style="font-style:normal;font-variant:normal;font-weight:bold;font-stretch:normal;font-size:medium;font-family:Montserrat;-inkscape-font-specification:'Montserrat, Bold';font-variant-ligatures:normal;font-variant-caps:normal;font-variant-numeric:normal;font-feature-settings:normal;text-align:start;writing-mode:lr-tb;text-anchor:start;fill:#c72b66;fill-opacity:1"
   d="m 986.96898,265.27679 v -52.34133 h -22.92266 v 10.67734 h 9.632 v 41.66399 z" /><path
   inkscape:connector-curvature="0"
   id="path992"
   style="font-style:normal;font-variant:normal;font-weight:bold;font-stretch:normal;font-size:medium;font-family:Montserrat;-inkscape-font-specification:'Montserrat, Bold';font-variant-ligatures:normal;font-variant-caps:normal;font-variant-numeric:normal;font-feature-settings:normal;text-align:start;writing-mode:lr-tb;text-anchor:start;fill:#c72b66;fill-opacity:1"
   d="m 1014.4545,265.79946 c 14.7093,0 24.192,-10.82667 24.192,-27.47733 0,-16.05333 -8.512,-25.984 -22.5493,-25.984 -11.7974,0 -19.56271,7.01867 -19.56271,18.06933 0,10.15467 6.57071,16.87467 16.87471,16.87467 5.824,0 10.0053,-2.09067 12.4693,-5.6 0.1493,8.58666 -3.8827,13.888 -12.2453,13.888 -4.032,0 -7.9894,-1.19467 -10.976,-3.36 l -5.07737,9.25866 c 4.40537,2.688 11.05067,4.33067 16.87467,4.33067 z m 1.9413,-28.224 c -4.7786,0 -7.5413,-2.61333 -7.5413,-7.09333 0,-4.85333 2.9867,-7.54133 7.7653,-7.54133 5.376,0 7.84,3.43466 7.84,7.31733 0,4.256 -2.912,7.31733 -8.064,7.31733 z" />
<text
   xml:space="preserve"
   style="font-style:normal;font-weight:normal;font-size:40px;line-height:125%;font-family:sans-serif;letter-spacing:0px;word-spacing:0px;fill:#000000;fill-opacity:1;stroke:none;stroke-width:1px;stroke-linecap:butt;stroke-linejoin:miter;stroke-opacity:1"
   x="765.56665"
   y="399.7348"
   id="text872"><tspan
     sodipodi:role="line"
     id="tspan870"
     x="765.56665"
     y="435.12543"></tspan></text>
</svg>