<?xml version="1.0" encoding="UTF-8" standalone="no"?>
<!-- Generator: Adobe Illustrator 19.0.0, SVG Export Plug-In . SVG Version: 6.00 Build 0)  -->

<svg
   xmlns:dc="http://purl.org/dc/elements/1.1/"
   xmlns:cc="http://creativecommons.org/ns#"
   xmlns:rdf="http://www.w3.org/1999/02/22-rdf-syntax-ns#"
   xmlns:svg="http://www.w3.org/2000/svg"
   xmlns="http://www.w3.org/2000/svg"
   xmlns:sodipodi="http://sodipodi.sourceforge.net/DTD/sodipodi-0.dtd"
   xmlns:inkscape="http://www.inkscape.org/namespaces/inkscape"
   version="1.1"
   id="Capa_1"
   x="0px"
   y="0px"
   viewBox="0 0 187.30469 187.30469"
   xml:space="preserve"
   sodipodi:docname="logo-pulpo-azul.svg"
   inkscape:version="0.92.3 (2405546, 2018-03-11)"
   width="187.3047"
   height="187.3047"
   inkscape:export-filename="/home/jsanz/src/osgeo/geocamp/2019/assets/imgs/favicons/favicon_72.png"
   inkscape:export-xdpi="36.902435"
   inkscape:export-ydpi="36.902435"><title
   id="title971">Geocapm Octopus Logo</title><metadata
   id="metadata911"><rdf:RDF><cc:Work
       rdf:about=""><dc:format>image/svg+xml</dc:format><dc:type
         rdf:resource="http://purl.org/dc/dcmitype/StillImage" /><dc:title>Geocapm Octopus Logo</dc:title><cc:license
         rdf:resource="http://creativecommons.org/licenses/by-nc-sa/4.0/" /></cc:Work><cc:License
       rdf:about="http://creativecommons.org/licenses/by-nc-sa/4.0/"><cc:permits
         rdf:resource="http://creativecommons.org/ns#Reproduction" /><cc:permits
         rdf:resource="http://creativecommons.org/ns#Distribution" /><cc:requires
         rdf:resource="http://creativecommons.org/ns#Notice" /><cc:requires
         rdf:resource="http://creativecommons.org/ns#Attribution" /><cc:prohibits
         rdf:resource="http://creativecommons.org/ns#CommercialUse" /><cc:permits
         rdf:resource="http://creativecommons.org/ns#DerivativeWorks" /><cc:requires
         rdf:resource="http://creativecommons.org/ns#ShareAlike" /></cc:License></rdf:RDF></metadata><defs
   id="defs909">
	
	
	
	
	
	
	
	
	
	

		
		
		
	</defs><sodipodi:namedview
   pagecolor="#ffffff"
   bordercolor="#666666"
   borderopacity="1"
   objecttolerance="10"
   gridtolerance="10"
   guidetolerance="10"
   inkscape:pageopacity="0"
   inkscape:pageshadow="2"
   inkscape:window-width="1916"
   inkscape:window-height="1149"
   id="namedview907"
   showgrid="false"
   inkscape:zoom="2.8169821"
   inkscape:cx="95.661454"
   inkscape:cy="50.372126"
   inkscape:window-x="0"
   inkscape:window-y="49"
   inkscape:window-maximized="0"
   inkscape:current-layer="Capa_1"
   fit-margin-top="1"
   fit-margin-left="1"
   fit-margin-right="1"
   fit-margin-bottom="1"
   inkscape:pagecheckerboard="true" />
<style
   type="text/css"
   id="style883">
	.st0{fill:#022362;}
</style>
<circle
   style="opacity:1;fill:#ffffff;fill-opacity:1;stroke:none;stroke-width:3.81734705;stroke-linecap:square;stroke-miterlimit:4;stroke-dasharray:none;stroke-dashoffset:0;stroke-opacity:1"
   id="path833"
   cx="93.652351"
   cy="93.652351"
   r="92.652351" /><path
   style="fill:#ffffff;fill-opacity:1;stroke:#000000;stroke-opacity:1"
   d="m 93.801767,17.436914 c -23.8,0 -43.298831,19.400782 -43.298831,43.300782 0,9.100002 3.100001,18.200392 9,26.400392 1.600001,2.3 3.19961,5.59922 1.59961,8.69922 -2.6,5.100002 -11.89961,6.900392 -19.59961,6.900392 -8.299999,0 -15,6.69999 -15,14.99999 0,8.30001 6.700001,15.00001 15,15.00001 4.3,0 10.30039,-1.00039 15.400391,-2.40039 -1.4,1 -2.80117,2.19961 -4.20117,3.09961 -5.9,4.2 -7.80039,11.10078 -4.90039,17.80078 1.7,4 5,7.1 9,8.5 3.7,1.3 7.6,1.10078 11,-0.69922 10.099999,-5.3 16.60039,-14.30039 21.40039,-20.90039 1.4,-1.9 3.20039,-4.39961 4.40039,-5.59961 1.2,1.2 3.00039,3.69961 4.40039,5.59961 4.800003,6.6 11.300383,15.50039 21.400383,20.90039 2,1 4.09883,1.59961 6.29883,1.59961 1.6,0 3.20078,-0.30078 4.80078,-0.80078 4.1,-1.4 7.3,-4.5 9,-8.5 2.9,-6.7 0.99961,-13.59883 -4.90039,-17.79883 -1.4,-1 -2.79922,-2.10156 -4.19922,-3.10156 5.1,1.3 11.09844,2.40039 15.39844,2.40039 8.3,0 15,-6.7 15,-15.00001 0,-8.3 -6.39922,-15.0996 -14.69922,-15.0996 -7.8,0 -16.99961,-1.80039 -19.59961,-6.900392 -1.6,-3.1 -3.9e-4,-6.39922 1.59961,-8.69922 5.9,-8.2 9,-17.30039 9,-26.400392 0,-23.8 -19.40078,-43.300782 -43.300773,-43.300782 z"
   id="path1015"
   inkscape:connector-curvature="0" /><g
   id="XMLID_141_"
   transform="translate(-567.49765,16.437506)">
			<g
   id="XMLID_142_">
				<path
   id="XMLID_143_"
   class="st0"
   d="m 713.6,86.3 c -7.8,0 -17,-1.8 -19.6,-6.9 -1.6,-3.1 0,-6.4 1.6,-8.7 5.9,-8.2 9,-17.3 9,-26.4 C 704.6,20.5 685.2,1 661.3,1 637.5,1 618,20.4 618,44.3 c 0,9.1 3.1,18.2 9,26.4 1.6,2.3 3.2,5.6 1.6,8.7 -2.6,5.1 -11.9,6.9 -19.6,6.9 -8.3,0 -15,6.7 -15,15 0,8.3 6.7,15 15,15 4.3,0 10.3,-1 15.4,-2.4 -1.4,1 -2.8,2.2 -4.2,3.1 -5.9,4.2 -7.8,11.1 -4.9,17.8 1.7,4 5,7.1 9,8.5 3.7,1.3 7.6,1.1 11,-0.7 10.1,-5.3 16.6,-14.3 21.4,-20.9 1.4,-1.9 3.2,-4.4 4.4,-5.6 1.2,1.2 3,3.7 4.4,5.6 4.8,6.6 11.3,15.5 21.4,20.9 2,1 4.1,1.6 6.3,1.6 1.6,0 3.2,-0.3 4.8,-0.8 4.1,-1.4 7.3,-4.5 9,-8.5 2.9,-6.7 1,-13.6 -4.9,-17.8 -1.4,-1 -2.8,-2.1 -4.2,-3.1 5.1,1.3 11.1,2.4 15.4,2.4 8.3,0 15,-6.7 15,-15 0,-8.3 -6.4,-15.1 -14.7,-15.1 z m 0,21.3 c -5.3,0 -15,-2.2 -19.2,-4.1 -3.8,-1.6 -8.1,-0.2 -10,3.3 -1.9,3.5 -0.8,7.5 2.7,9.9 1,0.7 2.7,2 4.5,3.4 1.7,1.3 3.7,2.8 5.6,4.2 3.2,2.3 2.8,5.2 2,7.2 -0.7,1.7 -2.2,3.1 -3.9,3.7 -1,0.3 -2.5,0.6 -4,-0.2 -8.3,-4.4 -14.1,-12.4 -18.4,-18.3 -4.1,-5.7 -7.1,-9.7 -11.5,-9.7 -4.4,0 -7.4,4.1 -11.5,9.7 -4.3,5.9 -10.1,13.9 -18.4,18.3 -1.5,0.8 -3,0.6 -4,0.2 -1.7,-0.6 -3.2,-2 -3.9,-3.7 -0.9,-2 -1.2,-4.9 2,-7.2 1.9,-1.3 3.8,-2.8 5.6,-4.2 1.8,-1.4 3.5,-2.7 4.5,-3.4 3.5,-2.3 4.6,-6.4 2.7,-9.9 -1.9,-3.5 -6.2,-4.9 -10,-3.3 -4.2,1.8 -13.9,4.1 -19.2,4.1 -3.5,0 -6.3,-2.8 -6.3,-6.3 0,-3.5 2.8,-6.3 6.3,-6.3 13.6,0 23.6,-4.3 27.4,-11.7 2.8,-5.4 1.9,-11.9 -2.3,-17.8 -4.9,-6.8 -7.4,-14 -7.4,-21.3 0,-19 15.5,-34.5 34.5,-34.5 19,0 34.5,15.5 34.5,34.5 0,7.4 -2.5,14.5 -7.4,21.3 -4.3,5.9 -5.1,12.4 -2.3,17.8 3.8,7.4 13.8,11.7 27.4,11.7 3.5,0 6.3,2.8 6.3,6.3 0,3.5 -2.8,6.3 -6.3,6.3 z"
   inkscape:connector-curvature="0"
   style="fill:#022362" />
			</g>
		</g><g
   id="XMLID_138_"
   transform="translate(-567.49765,16.437506)">
			<g
   id="XMLID_139_">
				<path
   id="XMLID_140_"
   class="st0"
   d="m 646.8,43.4 c -3.2,0 -5.8,2.6 -5.8,5.8 0,3.2 2.6,5.8 5.8,5.8 3.2,0 5.8,-2.6 5.8,-5.8 0,-3.2 -2.6,-5.8 -5.8,-5.8 z"
   inkscape:connector-curvature="0"
   style="fill:#022362" />
			</g>
		</g><g
   id="XMLID_135_"
   transform="translate(-567.49765,16.437506)">
			<g
   id="XMLID_136_">
				<path
   id="XMLID_137_"
   class="st0"
   d="m 676,43.4 c -3.2,0 -5.8,2.6 -5.8,5.9 0,3.3 2.6,5.9 5.8,5.9 3.2,0 5.8,-2.6 5.8,-5.9 0,-3.3 -2.6,-5.9 -5.8,-5.9 z"
   inkscape:connector-curvature="0"
   style="fill:#022362" />
			</g>
		</g>
</svg>