<?xml version="1.0" encoding="UTF-8" standalone="no"?>
<svg
   xmlns:dc="http://purl.org/dc/elements/1.1/"
   xmlns:cc="http://creativecommons.org/ns#"
   xmlns:rdf="http://www.w3.org/1999/02/22-rdf-syntax-ns#"
   xmlns:svg="http://www.w3.org/2000/svg"
   xmlns="http://www.w3.org/2000/svg"
   xmlns:sodipodi="http://sodipodi.sourceforge.net/DTD/sodipodi-0.dtd"
   xmlns:inkscape="http://www.inkscape.org/namespaces/inkscape"
   version="1.1"
   id="bus-15"
   width="30"
   height="30"
   viewBox="0 0 30 30"
   sodipodi:docname="bus-30.svg"
   inkscape:version="0.92.3 (2405546, 2018-03-11)">
  <metadata
     id="metadata8">
    <rdf:RDF>
      <cc:Work
         rdf:about="">
        <dc:format>image/svg+xml</dc:format>
        <dc:type
           rdf:resource="http://purl.org/dc/dcmitype/StillImage" />
        <dc:title></dc:title>
      </cc:Work>
    </rdf:RDF>
  </metadata>
  <defs
     id="defs6" />
  <sodipodi:namedview
     pagecolor="#ffffff"
     bordercolor="#666666"
     borderopacity="1"
     objecttolerance="10"
     gridtolerance="10"
     guidetolerance="10"
     inkscape:pageopacity="0"
     inkscape:pageshadow="2"
     inkscape:window-width="1916"
     inkscape:window-height="1149"
     id="namedview4"
     showgrid="false"
     inkscape:zoom="15.733333"
     inkscape:cx="36.190885"
     inkscape:cy="7.5"
     inkscape:window-x="0"
     inkscape:window-y="49"
     inkscape:window-maximized="0"
     inkscape:current-layer="bus-15" />
  <path
     id="path8043"
     d="m 8.0296613,0.12711869 c -2.7156442,0 -5.9745763,1.48030131 -5.9745763,5.46892841 v 10.8599869 7.56939 c 0,0 0,1.991525 1.9915254,1.991525 v 1.991525 c 0,0 0,1.991526 1.9915255,1.991526 1.9915254,0 1.9915254,-1.991526 1.9915254,-1.991526 V 26.016949 H 21.970339 v 1.991525 c 0,0 0,1.991526 1.991526,1.991526 1.991526,0 1.991526,-1.991526 1.991526,-1.991526 v -1.991525 c 0,0 1.991524,0 1.991524,-1.991525 V 5.5960471 c 0,-4.0736657 -2.461524,-5.46892841 -5.177169,-5.46892841 z M 8.5275426,3.1144071 H 21.472458 c 0.275826,0 0.497881,0.2220543 0.497881,0.4978815 0,0.2758257 -0.222055,0.4978814 -0.497881,0.4978814 H 8.5275426 c -0.2758263,0 -0.4978813,-0.2220557 -0.4978813,-0.4978814 0,-0.2758272 0.222055,-0.4978815 0.4978813,-0.4978815 z M 6.0381359,6.1016943 H 23.961865 c 1.991526,0 1.991526,1.9254071 1.991526,1.9254071 v 6.0406956 c 0,0 0,1.991524 -1.991526,1.991524 H 6.0381359 c -1.9915255,0 -1.9915255,-1.991524 -1.9915255,-1.991524 V 8.09322 c 0,0 0,-1.9915257 1.9915255,-1.9915257 z m 0,13.9406787 c 1.0999194,0 1.9915254,0.891606 1.9915254,1.991526 0,1.099918 -0.891606,1.991525 -1.9915254,1.991525 -1.0999196,0 -1.9915255,-0.891607 -1.9915255,-1.991525 0,-1.09992 0.8916059,-1.991526 1.9915255,-1.991526 z m 17.9237291,0 c 1.099919,0 1.991526,0.891606 1.991526,1.991526 0,1.099918 -0.891607,1.991525 -1.991526,1.991525 -1.09992,0 -1.991526,-0.891607 -1.991526,-1.991525 0,-1.09992 0.891606,-1.991526 1.991526,-1.991526 z"
     inkscape:connector-curvature="0"
     style="stroke-width:1.99152541" />
</svg>
