<?xml version="1.0" encoding="UTF-8" standalone="no"?>
<svg
   xmlns:dc="http://purl.org/dc/elements/1.1/"
   xmlns:cc="http://creativecommons.org/ns#"
   xmlns:rdf="http://www.w3.org/1999/02/22-rdf-syntax-ns#"
   xmlns:svg="http://www.w3.org/2000/svg"
   xmlns="http://www.w3.org/2000/svg"
   id="svg8"
   version="1.1"
   viewBox="0 0 30 30"
   height="30mm"
   width="30mm">
  <defs
     id="defs2">
    <clipPath
       id="clipPath990"
       clipPathUnits="userSpaceOnUse">
      <g
         id="use992">
        <g
           id="g1018"
           transform="translate(-0.13363448)">
          <path
             style="fill:#e8cfbc;stroke-width:0.43531689"
             d="M 81.189285,176.83207 V 162.0313 h 15.018433 15.018432 v 14.80077 14.80078 H 96.207718 81.189285 Z"
             id="path1010" />
          <path
             style="fill:#e9a77b;stroke-width:0.43531689"
             d="m 84.906505,190.00041 c 0.374927,-0.89784 1.259073,-2.1601 1.964768,-2.80502 0.705696,-0.64492 1.283083,-1.43824 1.283083,-1.76294 0,-0.32469 -1.567141,-1.35442 -3.482536,-2.28828 l -3.482535,-1.69793 v -9.70747 -9.70747 h 1.088292 c 0.653789,0 1.088293,0.24869 1.088293,0.62288 0,0.37175 2.568732,1.86357 6.371293,3.70019 3.504211,1.69253 6.433433,3.07732 6.509383,3.07732 0.16953,0 1.920403,-3.92232 1.91932,-4.29968 -4.28e-4,-0.14913 -0.881945,-0.82784 -1.958926,-1.50824 -1.076981,-0.68041 -1.958148,-1.32149 -1.958148,-1.42463 0,-0.10314 2.46022,-0.15862 5.467155,-0.12327 4.441643,0.0522 5.424073,0.17654 5.237463,0.66282 -0.12633,0.32921 -0.0609,0.59856 0.14539,0.59856 0.2063,0 0.48784,-0.29384 0.62565,-0.65297 0.18441,-0.48056 0.94388,-0.65298 2.87614,-0.65298 h 2.62556 v 14.80077 14.80078 H 97.725486 84.224819 Z m 16.216335,-4.54866 c 0.75282,-2.68132 1.31182,-4.93209 1.24222,-5.00169 -0.0696,-0.0696 -2.12073,-0.36052 -4.558062,-0.64648 l -4.43151,-0.51993 -1.269369,1.21613 c -0.698153,0.66887 -1.702456,2.37419 -2.231784,3.78961 -0.529329,1.41541 -1.132868,2.67882 -1.341198,2.80757 -0.943345,0.58302 -0.158265,0.94642 2.559608,1.18479 1.616114,0.14175 4.015798,0.64558 5.332632,1.11963 1.316834,0.47404 2.604496,0.87622 2.861471,0.89371 0.256976,0.0175 1.083172,-2.16201 1.835992,-4.84334 z"
             id="path1012" />
          <path
             style="fill:#f27c33;stroke-width:0.43531689"
             d="m 84.67182,191.16891 c 0,-0.7829 0.925574,-2.28655 2.471862,-4.01569 0.811569,-0.90754 1.348577,-1.85556 1.193352,-2.10673 -0.155226,-0.25116 -1.82697,-1.15282 -3.714989,-2.00369 l -3.43276,-1.54704 v -7.12033 c 0,-4.49656 0.161769,-7.12033 0.439006,-7.12033 0.272762,0 0.249357,-0.30367 -0.06181,-0.80193 -0.39436,-0.63147 -0.331071,-1.18665 0.297745,-2.6119 0.815868,-1.8492 1.786733,-2.51186 1.375351,-0.93874 -0.125308,0.47918 -0.04883,0.76061 0.169961,0.62539 0.218787,-0.13522 0.510569,0.048 0.648405,0.40723 0.14689,0.38279 0.535502,0.54375 0.938971,0.38893 0.472755,-0.18141 0.584136,-0.0955 0.355605,0.27426 -0.208143,0.33678 -0.112621,0.49554 0.255076,0.42395 1.0015,-0.19501 2.578191,0.52382 2.264009,1.03218 -0.189701,0.30694 -0.03621,0.3785 0.428996,0.19998 0.472991,-0.1815 0.724386,-0.0561 0.724386,0.36134 0,0.35162 0.207454,0.63931 0.461008,0.63931 0.253555,0 0.341327,-0.19365 0.195049,-0.43033 -0.152295,-0.24642 0.0217,-0.31994 0.407126,-0.17204 0.370196,0.14206 0.566089,0.43141 0.435317,0.643 -0.130772,0.21159 0.06625,0.26806 0.437817,0.12547 0.456019,-0.17499 0.686754,0.003 0.709952,0.54913 0.0189,0.44461 0.129504,0.57452 0.245783,0.28869 0.116279,-0.28583 0.491474,-0.41222 0.833767,-0.28087 0.342292,0.13135 0.515354,0.41194 0.384583,0.62353 -0.130773,0.2116 0.06624,0.26806 0.437817,0.12547 0.456019,-0.17499 0.686754,0.003 0.709951,0.54913 0.0189,0.44461 0.126241,0.58431 0.238531,0.31045 0.11229,-0.27387 0.585974,-0.39809 1.052629,-0.27606 0.668613,0.17485 1.031266,-0.18098 1.710835,-1.67865 0.474303,-1.04529 0.866672,-2.12221 0.87193,-2.39316 0.0053,-0.27094 -0.920929,-1.10118 -2.058195,-1.84497 l -2.067755,-1.35235 4.073256,-0.005 c 3.443143,-0.004 4.034493,0.0959 3.822683,0.64786 -0.13781,0.35913 -0.0818,0.65297 0.12452,0.65297 0.20629,0 0.50452,-0.33732 0.66273,-0.7496 0.24789,-0.64601 0.34915,-0.66105 0.73269,-0.10883 0.3367,0.48478 0.49879,0.50831 0.66583,0.0966 0.317,-0.78124 1.16204,-0.67448 0.86145,0.10883 -0.13781,0.35913 -0.0547,0.65297 0.18475,0.65297 0.23942,0 0.55438,-0.31026 0.69989,-0.68947 0.21482,-0.5598 0.3413,-0.58027 0.67246,-0.10883 0.31897,0.45407 0.456,0.46203 0.62867,0.0365 0.12978,-0.31986 1.01329,-0.54415 2.14344,-0.54415 h 1.92265 v 9.56609 9.56609 l -1.19712,-0.23575 c -0.65842,-0.12966 -2.45927,-0.27168 -4.0019,-0.3156 l -2.80477,-0.0799 -1.2866,4.46985 c -0.70763,2.45843 -1.3736,4.38287 -1.47993,4.27654 -0.10633,-0.10633 0.31457,-1.95874 0.93533,-4.11646 1.49387,-5.19261 1.48534,-5.28219 -0.50378,-5.2862 -0.897849,-0.002 -2.887964,-0.207 -4.422486,-0.45598 l -2.790039,-0.4527 -1.652629,1.61375 c -0.908946,0.88756 -1.77341,2.16366 -1.92103,2.83577 -0.147621,0.67211 -0.743997,1.92285 -1.325281,2.77942 -0.581283,0.85657 -1.056879,1.62133 -1.056879,1.69948 0,0.0781 1.322275,0.27411 2.938389,0.43548 1.616114,0.16137 4.256833,0.73901 5.868265,1.28365 1.990717,0.67282 3.072143,0.84798 3.373706,0.54641 0.301564,-0.30156 0.443834,-0.28037 0.443834,0.0661 0,0.28046 0.63665,0.69376 1.41478,0.91843 1.16229,0.3356 0.73501,0.41551 -2.394247,0.44777 -3.465943,0.0357 -3.809023,-0.0353 -3.809023,-0.78796 0,-0.63469 -0.515284,-0.95083 -2.214006,-1.35834 -3.177088,-0.76218 -6.012559,-0.34801 -7.218893,1.05444 -1.046658,1.21681 -1.450024,1.40241 -1.450024,0.66718 z m 15.84249,-12.84883 c 0.35907,-0.9357 0.3372,-1.05269 -0.19677,-1.05269 -0.25356,0 -0.339942,0.19589 -0.19197,0.43532 0.14797,0.23942 0.0616,0.43531 -0.191967,0.43531 -0.253554,0 -0.461008,0.1959 -0.461008,0.43532 0,0.68865 0.750265,0.50624 1.041715,-0.25326 z m -1.477032,-0.18206 c 0,-0.23942 -0.195892,-0.43531 -0.435316,-0.43531 -0.239425,0 -0.435317,0.19589 -0.435317,0.43531 0,0.23943 0.195892,0.43532 0.435317,0.43532 0.239424,0 0.435316,-0.19589 0.435316,-0.43532 z m 3.047222,0 c 0,-0.23942 -0.1959,-0.43531 -0.43532,-0.43531 -0.23942,0 -0.43532,0.19589 -0.43532,0.43531 0,0.23943 0.1959,0.43532 0.43532,0.43532 0.23942,0 0.43532,-0.19589 0.43532,-0.43532 z m -7.229306,-1.12389 c 0.359062,-0.9357 0.337194,-1.05269 -0.196776,-1.05269 -0.253554,0 -0.33994,0.19589 -0.191967,0.43532 0.147972,0.23942 0.06159,0.43531 -0.191968,0.43531 -0.253554,0 -0.461008,0.1959 -0.461008,0.43532 0,0.68865 0.75027,0.50624 1.041719,-0.25326 z m 3.047218,0 c 0.350667,-0.91383 0.334796,-1.05269 -0.120313,-1.05269 -0.211499,0 -0.486999,0.39178 -0.612221,0.87063 -0.268836,1.02803 0.348982,1.18158 0.732534,0.18206 z m -1.305951,-0.43532 c 0.359063,-0.9357 0.337195,-1.05269 -0.196775,-1.05269 -0.253554,0 -0.33994,0.1959 -0.191968,0.43532 0.147973,0.23942 0.06159,0.43532 -0.191967,0.43532 -0.253554,0 -0.461008,0.19589 -0.461008,0.43531 0,0.68865 0.750269,0.50625 1.041718,-0.25326 z m 2.876134,0.25326 c 0,-0.23942 -0.08638,-0.43531 -0.191967,-0.43531 -0.105582,0 -0.313036,0.19589 -0.461008,0.43531 -0.147973,0.23943 -0.06159,0.43532 0.191967,0.43532 0.253555,0 0.461008,-0.19589 0.461008,-0.43532 z m -3.917852,-1.74126 c 0,-0.23943 -0.08639,-0.43532 -0.191967,-0.43532 -0.105582,0 -0.313036,0.19589 -0.461008,0.43532 -0.147973,0.23942 -0.06159,0.43531 0.191967,0.43531 0.253554,0 0.461008,-0.19589 0.461008,-0.43531 z m 3.469203,-1.0883 c 0,-0.23942 -0.189893,-0.14147 -0.421984,0.21766 -0.232092,0.35914 -0.421985,0.84887 -0.421985,1.08829 0,0.23943 0.189893,0.14148 0.421985,-0.21765 0.232091,-0.35914 0.421984,-0.84887 0.421984,-1.0883 z m -6.73408,0.65298 c 0.147973,-0.23943 0.06159,-0.43532 -0.191967,-0.43532 -0.253554,0 -0.461008,0.19589 -0.461008,0.43532 0,0.23942 0.08638,0.43532 0.191967,0.43532 0.105582,0 0.313036,-0.1959 0.461008,-0.43532 z m 8.475344,-1.08829 c 0,-0.23943 -0.18989,-0.14148 -0.42198,0.21766 -0.23209,0.35913 -0.421986,0.84886 -0.421986,1.08829 0,0.23942 0.189896,0.14148 0.421986,-0.21766 0.23209,-0.35914 0.42198,-0.84887 0.42198,-1.08829 z m -6.516418,0.65297 c 0,-0.23942 -0.195892,-0.43531 -0.435317,-0.43531 -0.239424,0 -0.435316,0.19589 -0.435316,0.43531 0,0.23943 0.195892,0.43532 0.435316,0.43532 0.239425,0 0.435317,-0.19589 0.435317,-0.43532 z m 8.429418,-1.29266 c -0.23958,-0.23958 -1.01257,0.88297 -1.02236,1.48469 -0.004,0.22533 0.27115,0.0297 0.61071,-0.43463 0.33956,-0.46438 0.52481,-0.9369 0.41165,-1.05006 z m 1.56954,-0.23095 c 0,-0.23942 -0.18989,-0.14147 -0.42199,0.21766 -0.23209,0.35914 -0.42198,0.84887 -0.42198,1.08829 0,0.23943 0.18989,0.14148 0.42198,-0.21765 0.2321,-0.35914 0.42199,-0.84887 0.42199,-1.0883 z m -14.352127,0.65298 c 0,-0.23943 -0.195892,-0.43532 -0.435317,-0.43532 -0.239424,0 -0.435317,0.19589 -0.435317,0.43532 0,0.23942 0.195893,0.43532 0.435317,0.43532 0.239425,0 0.435317,-0.1959 0.435317,-0.43532 z m 1.741268,-0.43532 c 0,-0.23942 -0.08639,-0.43532 -0.191967,-0.43532 -0.105583,0 -0.313036,0.1959 -0.461008,0.43532 -0.147973,0.23943 -0.06159,0.43532 0.191967,0.43532 0.253554,0 0.461008,-0.19589 0.461008,-0.43532 z m 5.3822,-1.29266 c -0.239581,-0.23958 -1.012575,0.88297 -1.022365,1.48469 -0.0037,0.22533 0.271157,0.0298 0.610717,-0.43463 0.339561,-0.46438 0.524803,-0.9369 0.411648,-1.05006 z m 1.741268,-0.43531 c -0.239581,-0.23958 -1.012575,0.88297 -1.022365,1.48469 -0.0037,0.22533 0.271156,0.0297 0.610717,-0.43464 0.339561,-0.46437 0.524803,-0.9369 0.411648,-1.05005 z m 3.047221,0 c -0.23958,-0.23958 -1.01258,0.88297 -1.02237,1.48469 -0.004,0.22533 0.27116,0.0297 0.61072,-0.43464 0.33956,-0.46437 0.5248,-0.9369 0.41165,-1.05005 z m -1.68201,0.85734 c 0.14797,-0.23943 0.0616,-0.43532 -0.191967,-0.43532 -0.253554,0 -0.461008,0.19589 -0.461008,0.43532 0,0.23942 0.08639,0.43531 0.191968,0.43531 0.105582,0 0.313035,-0.19589 0.461007,-0.43531 z m 3.12355,0.14888 c -0.15754,-0.15754 -0.0683,-0.54932 0.19841,-0.87063 0.35662,-0.42971 0.35562,-0.5842 -0.004,-0.5842 -0.26874,0 -0.48862,0.0819 -0.48862,0.18205 0,0.10013 -0.1189,0.49192 -0.26423,0.87064 -0.15571,0.40578 -0.0365,0.68857 0.29021,0.68857 0.30494,0 0.42555,-0.12889 0.26801,-0.28643 z m 1.74127,-0.43532 c -0.15754,-0.15754 -0.0683,-0.54932 0.1984,-0.87063 0.35663,-0.42971 0.35563,-0.5842 -0.004,-0.5842 -0.26874,0 -0.48862,0.0819 -0.48862,0.18206 0,0.10013 -0.11891,0.49191 -0.26423,0.87063 -0.15572,0.40578 -0.0365,0.68858 0.29021,0.68858 0.30494,0 0.42555,-0.1289 0.26801,-0.28644 z m -7.400391,-0.87063 c -0.157539,-0.15754 -0.06826,-0.54932 0.198408,-0.87063 0.356626,-0.42971 0.355628,-0.5842 -0.0038,-0.5842 -0.268741,0 -0.488619,0.0819 -0.488619,0.18205 0,0.10013 -0.118905,0.49192 -0.264233,0.87064 -0.155712,0.40577 -0.03652,0.68857 0.290212,0.68857 0.304943,0 0.425548,-0.12889 0.268009,-0.28643 z m 1.741268,-0.43532 c -0.157539,-0.15754 -0.06826,-0.54932 0.198408,-0.87063 0.356626,-0.42971 0.355627,-0.5842 -0.0038,-0.5842 -0.268741,0 -0.48862,0.0819 -0.48862,0.18206 0,0.10012 -0.118904,0.49191 -0.264232,0.87063 -0.155712,0.40578 -0.03652,0.68858 0.290211,0.68858 0.304944,0 0.425549,-0.1289 0.26801,-0.28644 z m 1.741263,-0.43531 c -0.15753,-0.15754 -0.0683,-0.54933 0.19841,-0.87064 0.35663,-0.42971 0.35563,-0.5842 -0.004,-0.5842 -0.26875,0 -0.48862,0.0819 -0.48862,0.18206 0,0.10013 -0.11891,0.49191 -0.26424,0.87063 -0.15571,0.40578 -0.0365,0.68858 0.29021,0.68858 0.30495,0 0.42555,-0.1289 0.26801,-0.28643 z m 1.74127,-0.43532 c -0.15754,-0.15754 -0.0683,-0.54933 0.19841,-0.87063 0.35663,-0.42971 0.35563,-0.5842 -0.004,-0.5842 -0.26874,0 -0.48862,0.0819 -0.48862,0.18205 0,0.10013 -0.1189,0.49192 -0.26423,0.87064 -0.15571,0.40577 -0.0365,0.68857 0.29021,0.68857 0.30495,0 0.42555,-0.12889 0.26801,-0.28643 z m 2.99387,-0.1117 c -0.13533,-0.21898 2e-5,-0.486 0.3008,-0.59338 0.30077,-0.10738 0.38928,-0.36331 0.1967,-0.56872 -0.19259,-0.20541 -0.5324,-0.0853 -0.75514,0.26689 -0.53627,0.84796 -0.52157,1.29334 0.0427,1.29334 0.25356,0 0.35028,-0.17916 0.21495,-0.39813 z m -1.11127,-0.4725 c 0,-0.23942 -0.19589,-0.43532 -0.43532,-0.43532 -0.23942,0 -0.43532,0.1959 -0.43532,0.43532 0,0.23942 0.1959,0.43532 0.43532,0.43532 0.23943,0 0.43532,-0.1959 0.43532,-0.43532 z m -4.54785,-0.83345 c -0.13533,-0.21898 2e-5,-0.486 0.3008,-0.59338 0.30077,-0.10738 0.38928,-0.36331 0.1967,-0.56872 -0.19259,-0.20541 -0.5324,-0.0853 -0.755141,0.26689 -0.536269,0.84796 -0.521566,1.29334 0.04269,1.29334 0.253561,0 0.350281,-0.17916 0.214951,-0.39813 z m -1.111272,-0.4725 c 0,-0.23942 -0.195892,-0.43532 -0.435316,-0.43532 -0.239425,0 -0.435317,0.1959 -0.435317,0.43532 0,0.23942 0.195892,0.43532 0.435317,0.43532 0.239424,0 0.435316,-0.1959 0.435316,-0.43532 z m 2.852542,0.0372 c -0.13534,-0.21898 2e-5,-0.486 0.30079,-0.59338 0.30078,-0.10738 0.38929,-0.36331 0.19671,-0.56872 -0.19259,-0.20541 -0.5324,-0.0853 -0.75514,0.26689 -0.53627,0.84797 -0.52157,1.29335 0.0427,1.29335 0.25356,0 0.35028,-0.17917 0.21495,-0.39814 z m 1.74126,-0.43532 c -0.13533,-0.21897 3e-5,-0.48599 0.3008,-0.59338 0.30077,-0.10738 0.38929,-0.3633 0.1967,-0.56872 -0.19258,-0.20541 -0.5324,-0.0853 -0.75514,0.2669 -0.53626,0.84796 -0.52156,1.29334 0.0427,1.29334 0.25355,0 0.35028,-0.17916 0.21494,-0.39814 z m 2.11728,-0.75246 c 0.36444,-0.94971 -0.11944,-1.39114 -0.63365,-0.57806 -0.51478,0.81398 -0.52574,1.29334 -0.0296,1.29334 0.21381,0 0.51226,-0.32187 0.66322,-0.71528 z m -21.947174,0.088 c 0,-0.10558 -0.195892,-0.31304 -0.435316,-0.46101 -0.239425,-0.14797 -0.435317,-0.0616 -0.435317,0.19197 0,0.25355 0.195892,0.46101 0.435317,0.46101 0.239424,0 0.435316,-0.0864 0.435316,-0.19197 z m 23.688444,-0.52332 c 0.36444,-0.94971 -0.11944,-1.39114 -0.63365,-0.57806 -0.51478,0.81398 -0.52574,1.29335 -0.0296,1.29335 0.21381,0 0.51226,-0.32188 0.66322,-0.71529 z m -7.40039,-0.87063 c 0.36444,-0.94971 -0.11944,-1.39114 -0.633648,-0.57806 -0.514779,0.81398 -0.525739,1.29334 -0.02957,1.29334 0.213809,0 0.512259,-0.32187 0.663218,-0.71528 z m 1.73102,-0.40861 c 0.35907,-0.93571 0.3372,-1.05269 -0.19677,-1.05269 -0.25356,0 -0.33994,0.19589 -0.19197,0.43531 0.14797,0.23943 0.0616,0.43532 -0.19197,0.43532 -0.25355,0 -0.461,0.19589 -0.461,0.43532 0,0.68865 0.75027,0.50624 1.04171,-0.25326 z m 1.74127,-0.43532 c 0.35906,-0.9357 0.3372,-1.05269 -0.19677,-1.05269 -0.25356,0 -0.33994,0.19589 -0.19197,0.43532 0.14797,0.23942 0.0616,0.43531 -0.19197,0.43531 -0.25355,0 -0.46101,0.1959 -0.46101,0.43532 0,0.68865 0.75027,0.50624 1.04172,-0.25326 z m 3.04722,0 c 0.35067,-0.91382 0.3348,-1.05269 -0.12031,-1.05269 -0.2115,0 -0.487,0.39179 -0.61222,0.87063 -0.26884,1.02804 0.34898,1.18158 0.73253,0.18206 z m -1.47703,-0.18206 c 0,-0.23942 -0.1959,-0.43531 -0.43532,-0.43531 -0.23943,0 -0.43532,0.19589 -0.43532,0.43531 0,0.23943 0.19589,0.43532 0.43532,0.43532 0.23942,0 0.43532,-0.19589 0.43532,-0.43532 z m 3.2183,-0.25326 c 0.35067,-0.91382 0.33479,-1.05269 -0.12031,-1.05269 -0.2115,0 -0.487,0.39179 -0.61223,0.87064 -0.26883,1.02803 0.34899,1.18157 0.73254,0.18205 z m 2.28339,27.02525 c 0.13782,-0.35913 0.32756,-0.65297 0.42166,-0.65297 0.0941,0 0.17108,0.29384 0.17108,0.65297 0,0.35914 -0.18974,0.65298 -0.42165,0.65298 -0.23191,0 -0.3089,-0.29384 -0.17109,-0.65298 z"
             id="path1014" />
          <path
             style="fill:#4d5a30;stroke-width:0.43531689"
             d="m 84.67182,191.16891 c 0,-0.7829 0.925574,-2.28655 2.471862,-4.01569 0.811569,-0.90754 1.348577,-1.85556 1.193352,-2.10673 -0.155226,-0.25116 -1.82697,-1.15282 -3.714989,-2.00369 -1.888018,-0.85087 -3.43276,-1.70854 -3.43276,-1.90593 0,-0.43086 0.678157,-0.16046 4.231926,1.68737 1.489574,0.77452 2.873514,1.40822 3.075422,1.40822 0.201907,0 0.690317,-0.67778 1.085355,-1.50619 0.395038,-0.8284 1.312836,-2.32699 2.039552,-3.33019 0.726716,-1.0032 1.321302,-2.09009 1.321302,-2.41531 0,-0.32522 -1.708296,-1.38054 -3.796212,-2.34516 -2.087917,-0.96462 -4.732467,-2.35465 -5.876779,-3.08895 -1.813302,-1.1636 -2.080566,-1.52499 -2.080566,-2.81333 0,-0.81302 0.197553,-1.47823 0.439006,-1.47823 0.272762,0 0.249357,-0.30367 -0.06181,-0.80193 -0.39436,-0.63147 -0.331071,-1.18665 0.297745,-2.6119 0.815868,-1.8492 1.786733,-2.51186 1.375351,-0.93874 -0.125308,0.47918 -0.04883,0.76061 0.169961,0.62539 0.218787,-0.13522 0.510569,0.048 0.648405,0.40723 0.14689,0.38279 0.535502,0.54375 0.938971,0.38893 0.472755,-0.18141 0.584136,-0.0955 0.355605,0.27426 -0.208143,0.33678 -0.112621,0.49554 0.255076,0.42395 1.0015,-0.19501 2.578191,0.52382 2.264009,1.03218 -0.189701,0.30694 -0.03621,0.3785 0.428996,0.19998 0.472991,-0.1815 0.724386,-0.0561 0.724386,0.36134 0,0.35162 0.207454,0.63931 0.461008,0.63931 0.253555,0 0.341327,-0.19365 0.195049,-0.43033 -0.152295,-0.24642 0.0217,-0.31994 0.407126,-0.17204 0.370196,0.14206 0.566089,0.43141 0.435317,0.643 -0.130772,0.21159 0.06625,0.26806 0.437817,0.12547 0.456019,-0.17499 0.686754,0.003 0.709952,0.54913 0.0189,0.44461 0.129504,0.57452 0.245783,0.28869 0.116279,-0.28583 0.491474,-0.41222 0.833767,-0.28087 0.342292,0.13135 0.515354,0.41194 0.384583,0.62353 -0.130773,0.2116 0.06624,0.26806 0.437817,0.12547 0.456019,-0.17499 0.686754,0.003 0.709951,0.54913 0.0189,0.44461 0.126241,0.58431 0.238531,0.31045 0.11229,-0.27387 0.587371,-0.39772 1.055735,-0.27524 0.680129,0.17785 1.033414,-0.1884 1.754798,-1.8192 0.496774,-1.12304 0.779445,-2.36446 0.628157,-2.75871 -0.151287,-0.39425 -0.155475,-0.59722 -0.0093,-0.45106 0.146168,0.14617 0.885803,-0.30056 1.643632,-0.99273 1.485541,-1.35682 2.746281,-1.68413 2.332371,-0.60551 -0.13781,0.35913 -0.0818,0.65297 0.12452,0.65297 0.20629,0 0.50452,-0.33732 0.66273,-0.7496 0.24789,-0.64601 0.34914,-0.66105 0.73269,-0.10883 0.3367,0.48478 0.49879,0.50831 0.66583,0.0966 0.317,-0.78124 1.16204,-0.67448 0.86145,0.10883 -0.13781,0.35913 -0.0547,0.65297 0.18475,0.65297 0.23942,0 0.55438,-0.31026 0.69989,-0.68947 0.21482,-0.5598 0.3413,-0.58027 0.67246,-0.10883 0.31896,0.45407 0.456,0.46203 0.62867,0.0365 0.12978,-0.31986 1.01329,-0.54415 2.14344,-0.54415 h 1.92265 v 9.48537 9.48538 l -3.45193,-0.40204 c -1.89857,-0.22112 -3.71987,-0.29922 -4.04735,-0.17356 -0.32747,0.12567 -1.1582,2.20804 -1.84607,4.6275 -0.68786,2.41947 -1.33338,4.3163 -1.43447,4.2152 -0.1011,-0.1011 0.32407,-1.94923 0.94483,-4.10695 1.49387,-5.19261 1.48533,-5.28219 -0.50379,-5.2862 -0.897841,-0.002 -2.887956,-0.207 -4.422478,-0.45598 l -2.790039,-0.4527 -1.652629,1.61375 c -0.908946,0.88756 -1.77341,2.16366 -1.92103,2.83577 -0.147621,0.67211 -0.743997,1.92285 -1.325281,2.77942 -0.581283,0.85657 -1.056879,1.62133 -1.056879,1.69948 0,0.0781 1.322275,0.27411 2.938389,0.43548 1.616114,0.16137 4.256833,0.73901 5.868265,1.28365 1.990717,0.67282 3.072143,0.84798 3.373706,0.54641 0.301556,-0.30156 0.443826,-0.27188 0.443826,0.0926 0,0.29503 0.44076,0.71357 0.97946,0.9301 0.71542,0.28757 0.07,0.40114 -2.394236,0.42129 -3.081965,0.0252 -3.373706,-0.047 -3.373706,-0.83474 0,-1.10686 -1.48903,-1.53157 -5.370324,-1.53176 -2.70688,-1.3e-4 -3.069223,0.10814 -4.005801,1.19698 -1.100477,1.27938 -1.506798,1.47709 -1.506798,0.73318 z m 15.84249,-12.84883 c 0.35907,-0.9357 0.3372,-1.05269 -0.19677,-1.05269 -0.25356,0 -0.339942,0.19589 -0.19197,0.43532 0.14797,0.23942 0.0616,0.43531 -0.191967,0.43531 -0.253554,0 -0.461008,0.1959 -0.461008,0.43532 0,0.68865 0.750265,0.50624 1.041715,-0.25326 z m -1.477032,-0.18206 c 0,-0.23942 -0.195892,-0.43531 -0.435316,-0.43531 -0.239425,0 -0.435317,0.19589 -0.435317,0.43531 0,0.23943 0.195892,0.43532 0.435317,0.43532 0.239424,0 0.435316,-0.19589 0.435316,-0.43532 z m 3.047222,0 c 0,-0.23942 -0.1959,-0.43531 -0.43532,-0.43531 -0.23942,0 -0.43532,0.19589 -0.43532,0.43531 0,0.23943 0.1959,0.43532 0.43532,0.43532 0.23942,0 0.43532,-0.19589 0.43532,-0.43532 z m -7.229306,-1.12389 c 0.359062,-0.9357 0.337194,-1.05269 -0.196776,-1.05269 -0.253554,0 -0.33994,0.19589 -0.191967,0.43532 0.147972,0.23942 0.06159,0.43531 -0.191968,0.43531 -0.253554,0 -0.461008,0.1959 -0.461008,0.43532 0,0.68865 0.75027,0.50624 1.041719,-0.25326 z m 3.047218,0 c 0.350667,-0.91383 0.334796,-1.05269 -0.120313,-1.05269 -0.211499,0 -0.486999,0.39178 -0.612221,0.87063 -0.268836,1.02803 0.348982,1.18158 0.732534,0.18206 z m -1.305951,-0.43532 c 0.359063,-0.9357 0.337195,-1.05269 -0.196775,-1.05269 -0.253554,0 -0.33994,0.1959 -0.191968,0.43532 0.147973,0.23942 0.06159,0.43532 -0.191967,0.43532 -0.253554,0 -0.461008,0.19589 -0.461008,0.43531 0,0.68865 0.750269,0.50625 1.041718,-0.25326 z m 2.876134,0.25326 c 0,-0.23942 -0.08638,-0.43531 -0.191967,-0.43531 -0.105582,0 -0.313036,0.19589 -0.461008,0.43531 -0.147973,0.23943 -0.06159,0.43532 0.191967,0.43532 0.253555,0 0.461008,-0.19589 0.461008,-0.43532 z m -3.917852,-1.74126 c 0,-0.23943 -0.08639,-0.43532 -0.191967,-0.43532 -0.105582,0 -0.313036,0.19589 -0.461008,0.43532 -0.147973,0.23942 -0.06159,0.43531 0.191967,0.43531 0.253554,0 0.461008,-0.19589 0.461008,-0.43531 z m 3.469203,-1.0883 c 0,-0.23942 -0.189893,-0.14147 -0.421984,0.21766 -0.232092,0.35914 -0.421985,0.84887 -0.421985,1.08829 0,0.23943 0.189893,0.14148 0.421985,-0.21765 0.232091,-0.35914 0.421984,-0.84887 0.421984,-1.0883 z m -6.73408,0.65298 c 0.147973,-0.23943 0.06159,-0.43532 -0.191967,-0.43532 -0.253554,0 -0.461008,0.19589 -0.461008,0.43532 0,0.23942 0.08638,0.43532 0.191967,0.43532 0.105582,0 0.313036,-0.1959 0.461008,-0.43532 z m 8.475344,-1.08829 c 0,-0.23943 -0.18989,-0.14148 -0.42198,0.21766 -0.23209,0.35913 -0.421986,0.84886 -0.421986,1.08829 0,0.23942 0.189896,0.14148 0.421986,-0.21766 0.23209,-0.35914 0.42198,-0.84887 0.42198,-1.08829 z m -6.516418,0.65297 c 0,-0.23942 -0.195892,-0.43531 -0.435317,-0.43531 -0.239424,0 -0.435316,0.19589 -0.435316,0.43531 0,0.23943 0.195892,0.43532 0.435316,0.43532 0.239425,0 0.435317,-0.19589 0.435317,-0.43532 z m 8.429418,-1.29266 c -0.23958,-0.23958 -1.01257,0.88297 -1.02236,1.48469 -0.004,0.22533 0.27115,0.0297 0.61071,-0.43463 0.33956,-0.46438 0.52481,-0.9369 0.41165,-1.05006 z m 1.56954,-0.23095 c 0,-0.23942 -0.18989,-0.14147 -0.42199,0.21766 -0.23209,0.35914 -0.42198,0.84887 -0.42198,1.08829 0,0.23943 0.18989,0.14148 0.42198,-0.21765 0.2321,-0.35914 0.42199,-0.84887 0.42199,-1.0883 z m -14.352127,0.65298 c 0,-0.23943 -0.195892,-0.43532 -0.435317,-0.43532 -0.239424,0 -0.435317,0.19589 -0.435317,0.43532 0,0.23942 0.195893,0.43532 0.435317,0.43532 0.239425,0 0.435317,-0.1959 0.435317,-0.43532 z m 1.741268,-0.43532 c 0,-0.23942 -0.08639,-0.43532 -0.191967,-0.43532 -0.105583,0 -0.313036,0.1959 -0.461008,0.43532 -0.147973,0.23943 -0.06159,0.43532 0.191967,0.43532 0.253554,0 0.461008,-0.19589 0.461008,-0.43532 z m 5.3822,-1.29266 c -0.239581,-0.23958 -1.012575,0.88297 -1.022365,1.48469 -0.0037,0.22533 0.271157,0.0298 0.610717,-0.43463 0.339561,-0.46438 0.524803,-0.9369 0.411648,-1.05006 z m 1.741268,-0.43531 c -0.239581,-0.23958 -1.012575,0.88297 -1.022365,1.48469 -0.0037,0.22533 0.271156,0.0297 0.610717,-0.43464 0.339561,-0.46437 0.524803,-0.9369 0.411648,-1.05005 z m 3.047221,0 c -0.23958,-0.23958 -1.01258,0.88297 -1.02237,1.48469 -0.004,0.22533 0.27116,0.0297 0.61072,-0.43464 0.33956,-0.46437 0.5248,-0.9369 0.41165,-1.05005 z m -1.68201,0.85734 c 0.14797,-0.23943 0.0616,-0.43532 -0.191967,-0.43532 -0.253554,0 -0.461008,0.19589 -0.461008,0.43532 0,0.23942 0.08639,0.43531 0.191968,0.43531 0.105582,0 0.313035,-0.19589 0.461007,-0.43531 z m 3.12355,0.14888 c -0.15754,-0.15754 -0.0683,-0.54932 0.19841,-0.87063 0.35662,-0.42971 0.35562,-0.5842 -0.004,-0.5842 -0.26874,0 -0.48862,0.0819 -0.48862,0.18205 0,0.10013 -0.1189,0.49192 -0.26423,0.87064 -0.15571,0.40578 -0.0365,0.68857 0.29021,0.68857 0.30494,0 0.42555,-0.12889 0.26801,-0.28643 z m 1.74127,-0.43532 c -0.15754,-0.15754 -0.0683,-0.54932 0.1984,-0.87063 0.35663,-0.42971 0.35563,-0.5842 -0.004,-0.5842 -0.26874,0 -0.48862,0.0819 -0.48862,0.18206 0,0.10013 -0.11891,0.49191 -0.26423,0.87063 -0.15572,0.40578 -0.0365,0.68858 0.29021,0.68858 0.30494,0 0.42555,-0.1289 0.26801,-0.28644 z m -7.400391,-0.87063 c -0.157539,-0.15754 -0.06826,-0.54932 0.198408,-0.87063 0.356626,-0.42971 0.355628,-0.5842 -0.0038,-0.5842 -0.268741,0 -0.488619,0.0819 -0.488619,0.18205 0,0.10013 -0.118905,0.49192 -0.264233,0.87064 -0.155712,0.40577 -0.03652,0.68857 0.290212,0.68857 0.304943,0 0.425548,-0.12889 0.268009,-0.28643 z m 1.741268,-0.43532 c -0.157539,-0.15754 -0.06826,-0.54932 0.198408,-0.87063 0.356626,-0.42971 0.355627,-0.5842 -0.0038,-0.5842 -0.268741,0 -0.48862,0.0819 -0.48862,0.18206 0,0.10012 -0.118904,0.49191 -0.264232,0.87063 -0.155712,0.40578 -0.03652,0.68858 0.290211,0.68858 0.304944,0 0.425549,-0.1289 0.26801,-0.28644 z m 1.741263,-0.43531 c -0.15753,-0.15754 -0.0683,-0.54933 0.19841,-0.87064 0.35663,-0.42971 0.35563,-0.5842 -0.004,-0.5842 -0.26875,0 -0.48862,0.0819 -0.48862,0.18206 0,0.10013 -0.11891,0.49191 -0.26424,0.87063 -0.15571,0.40578 -0.0365,0.68858 0.29021,0.68858 0.30495,0 0.42555,-0.1289 0.26801,-0.28643 z m 1.74127,-0.43532 c -0.15754,-0.15754 -0.0683,-0.54933 0.19841,-0.87063 0.35663,-0.42971 0.35563,-0.5842 -0.004,-0.5842 -0.26874,0 -0.48862,0.0819 -0.48862,0.18205 0,0.10013 -0.1189,0.49192 -0.26423,0.87064 -0.15571,0.40577 -0.0365,0.68857 0.29021,0.68857 0.30495,0 0.42555,-0.12889 0.26801,-0.28643 z m 2.99387,-0.1117 c -0.13533,-0.21898 2e-5,-0.486 0.3008,-0.59338 0.30077,-0.10738 0.38928,-0.36331 0.1967,-0.56872 -0.19259,-0.20541 -0.5324,-0.0853 -0.75514,0.26689 -0.53627,0.84796 -0.52157,1.29334 0.0427,1.29334 0.25356,0 0.35028,-0.17916 0.21495,-0.39813 z m -1.11127,-0.4725 c 0,-0.23942 -0.19589,-0.43532 -0.43532,-0.43532 -0.23942,0 -0.43532,0.1959 -0.43532,0.43532 0,0.23942 0.1959,0.43532 0.43532,0.43532 0.23943,0 0.43532,-0.1959 0.43532,-0.43532 z m -4.54785,-0.83345 c -0.13533,-0.21898 2e-5,-0.486 0.3008,-0.59338 0.30077,-0.10738 0.38928,-0.36331 0.1967,-0.56872 -0.19259,-0.20541 -0.5324,-0.0853 -0.755141,0.26689 -0.536269,0.84796 -0.521566,1.29334 0.04269,1.29334 0.253561,0 0.350281,-0.17916 0.214951,-0.39813 z m -1.111272,-0.4725 c 0,-0.23942 -0.195892,-0.43532 -0.435316,-0.43532 -0.239425,0 -0.435317,0.1959 -0.435317,0.43532 0,0.23942 0.195892,0.43532 0.435317,0.43532 0.239424,0 0.435316,-0.1959 0.435316,-0.43532 z m 2.852542,0.0372 c -0.13534,-0.21898 2e-5,-0.486 0.30079,-0.59338 0.30078,-0.10738 0.38929,-0.36331 0.19671,-0.56872 -0.19259,-0.20541 -0.5324,-0.0853 -0.75514,0.26689 -0.53627,0.84797 -0.52157,1.29335 0.0427,1.29335 0.25356,0 0.35028,-0.17917 0.21495,-0.39814 z m 1.74126,-0.43532 c -0.13533,-0.21897 3e-5,-0.48599 0.3008,-0.59338 0.30077,-0.10738 0.38929,-0.3633 0.1967,-0.56872 -0.19258,-0.20541 -0.5324,-0.0853 -0.75514,0.2669 -0.53626,0.84796 -0.52156,1.29334 0.0427,1.29334 0.25355,0 0.35028,-0.17916 0.21494,-0.39814 z m 2.11728,-0.75246 c 0.36444,-0.94971 -0.11944,-1.39114 -0.63365,-0.57806 -0.51478,0.81398 -0.52574,1.29334 -0.0296,1.29334 0.21381,0 0.51226,-0.32187 0.66322,-0.71528 z m -21.947174,0.088 c 0,-0.10558 -0.195892,-0.31304 -0.435316,-0.46101 -0.239425,-0.14797 -0.435317,-0.0616 -0.435317,0.19197 0,0.25355 0.195892,0.46101 0.435317,0.46101 0.239424,0 0.435316,-0.0864 0.435316,-0.19197 z m 23.688444,-0.52332 c 0.36444,-0.94971 -0.11944,-1.39114 -0.63365,-0.57806 -0.51478,0.81398 -0.52574,1.29335 -0.0296,1.29335 0.21381,0 0.51226,-0.32188 0.66322,-0.71529 z m -7.40039,-0.87063 c 0.36444,-0.94971 -0.11944,-1.39114 -0.633648,-0.57806 -0.514779,0.81398 -0.525739,1.29334 -0.02957,1.29334 0.213809,0 0.512259,-0.32187 0.663218,-0.71528 z m 1.73102,-0.40861 c 0.35907,-0.93571 0.3372,-1.05269 -0.19677,-1.05269 -0.25356,0 -0.33994,0.19589 -0.19197,0.43531 0.14797,0.23943 0.0616,0.43532 -0.19197,0.43532 -0.25355,0 -0.461,0.19589 -0.461,0.43532 0,0.68865 0.75027,0.50624 1.04171,-0.25326 z m 1.74127,-0.43532 c 0.35906,-0.9357 0.3372,-1.05269 -0.19677,-1.05269 -0.25356,0 -0.33994,0.19589 -0.19197,0.43532 0.14797,0.23942 0.0616,0.43531 -0.19197,0.43531 -0.25355,0 -0.46101,0.1959 -0.46101,0.43532 0,0.68865 0.75027,0.50624 1.04172,-0.25326 z m 3.04722,0 c 0.35067,-0.91382 0.3348,-1.05269 -0.12031,-1.05269 -0.2115,0 -0.487,0.39179 -0.61222,0.87063 -0.26884,1.02804 0.34898,1.18158 0.73253,0.18206 z m -1.47703,-0.18206 c 0,-0.23942 -0.1959,-0.43531 -0.43532,-0.43531 -0.23943,0 -0.43532,0.19589 -0.43532,0.43531 0,0.23943 0.19589,0.43532 0.43532,0.43532 0.23942,0 0.43532,-0.19589 0.43532,-0.43532 z m 3.2183,-0.25326 c 0.35067,-0.91382 0.33479,-1.05269 -0.12031,-1.05269 -0.2115,0 -0.487,0.39179 -0.61223,0.87064 -0.26883,1.02803 0.34899,1.18157 0.73254,0.18205 z m 2.28339,27.02525 c 0.13782,-0.35913 0.32756,-0.65297 0.42166,-0.65297 0.0941,0 0.17108,0.29384 0.17108,0.65297 0,0.35914 -0.18974,0.65298 -0.42165,0.65298 -0.23191,0 -0.3089,-0.29384 -0.17109,-0.65298 z"
             id="path1016" />
        </g>
        <g
           transform="translate(0.26726956,-0.26726953)"
           id="g1022">
          <circle
             r="14.412476"
             cy="177.22495"
             cx="95.775551"
             id="circle1020"
             style="opacity:1;fill:#162745;fill-opacity:1;stroke:none;stroke-width:1.02379489;stroke-linecap:square;stroke-miterlimit:4;stroke-dasharray:none;stroke-dashoffset:0;stroke-opacity:1" />
        </g>
      </g>
    </clipPath>
    <clipPath
       id="clipPath1039"
       clipPathUnits="userSpaceOnUse">
      <g
         transform="translate(0.4009029,-0.26726857)"
         id="g1043">
        <circle
           r="14.412476"
           cy="177.22495"
           cx="95.775551"
           id="circle1041"
           style="opacity:1;fill:#162745;fill-opacity:1;stroke:none;stroke-width:1.02379489;stroke-linecap:square;stroke-miterlimit:4;stroke-dasharray:none;stroke-dashoffset:0;stroke-opacity:1" />
      </g>
    </clipPath>
  </defs>
  <metadata
     id="metadata5">
    <rdf:RDF>
      <cc:Work
         rdf:about="">
        <dc:format>image/svg+xml</dc:format>
        <dc:type
           rdf:resource="http://purl.org/dc/dcmitype/StillImage" />
        <dc:title></dc:title>
      </cc:Work>
    </rdf:RDF>
  </metadata>
  <g
     transform="translate(-81.189285,-161.63284)"
     id="layer1">
    <g
       clip-path="url(#clipPath1039)"
       id="g958"
       transform="translate(0.13363556,-0.13363477)">
      <path
         style="fill:#e8cfbc;stroke-width:0.43531689"
         d="M 81.189285,176.83207 V 162.0313 h 15.018433 15.018432 v 14.80077 14.80078 H 96.207718 81.189285 Z"
         id="path966" />
      <path
         style="fill:#e9a77b;stroke-width:0.43531689"
         d="m 84.906505,190.00041 c 0.374927,-0.89784 1.259073,-2.1601 1.964768,-2.80502 0.705696,-0.64492 1.283083,-1.43824 1.283083,-1.76294 0,-0.32469 -1.567141,-1.35442 -3.482536,-2.28828 l -3.482535,-1.69793 v -9.70747 -9.70747 h 1.088292 c 0.653789,0 1.088293,0.24869 1.088293,0.62288 0,0.37175 2.568732,1.86357 6.371293,3.70019 3.504211,1.69253 6.433433,3.07732 6.509383,3.07732 0.16953,0 1.920403,-3.92232 1.91932,-4.29968 -4.28e-4,-0.14913 -0.881945,-0.82784 -1.958926,-1.50824 -1.076981,-0.68041 -1.958148,-1.32149 -1.958148,-1.42463 0,-0.10314 2.46022,-0.15862 5.467155,-0.12327 4.441643,0.0522 5.424073,0.17654 5.237463,0.66282 -0.12633,0.32921 -0.0609,0.59856 0.14539,0.59856 0.2063,0 0.48784,-0.29384 0.62565,-0.65297 0.18441,-0.48056 0.94388,-0.65298 2.87614,-0.65298 h 2.62556 v 14.80077 14.80078 H 97.725486 84.224819 Z m 16.216335,-4.54866 c 0.75282,-2.68132 1.31182,-4.93209 1.24222,-5.00169 -0.0696,-0.0696 -2.12073,-0.36052 -4.558062,-0.64648 l -4.43151,-0.51993 -1.269369,1.21613 c -0.698153,0.66887 -1.702456,2.37419 -2.231784,3.78961 -0.529329,1.41541 -1.132868,2.67882 -1.341198,2.80757 -0.943345,0.58302 -0.158265,0.94642 2.559608,1.18479 1.616114,0.14175 4.015798,0.64558 5.332632,1.11963 1.316834,0.47404 2.604496,0.87622 2.861471,0.89371 0.256976,0.0175 1.083172,-2.16201 1.835992,-4.84334 z"
         id="path964" />
      <path
         style="fill:#f27c33;stroke-width:0.43531689"
         d="m 84.67182,191.16891 c 0,-0.7829 0.925574,-2.28655 2.471862,-4.01569 0.811569,-0.90754 1.348577,-1.85556 1.193352,-2.10673 -0.155226,-0.25116 -1.82697,-1.15282 -3.714989,-2.00369 l -3.43276,-1.54704 v -7.12033 c 0,-4.49656 0.161769,-7.12033 0.439006,-7.12033 0.272762,0 0.249357,-0.30367 -0.06181,-0.80193 -0.39436,-0.63147 -0.331071,-1.18665 0.297745,-2.6119 0.815868,-1.8492 1.786733,-2.51186 1.375351,-0.93874 -0.125308,0.47918 -0.04883,0.76061 0.169961,0.62539 0.218787,-0.13522 0.510569,0.048 0.648405,0.40723 0.14689,0.38279 0.535502,0.54375 0.938971,0.38893 0.472755,-0.18141 0.584136,-0.0955 0.355605,0.27426 -0.208143,0.33678 -0.112621,0.49554 0.255076,0.42395 1.0015,-0.19501 2.578191,0.52382 2.264009,1.03218 -0.189701,0.30694 -0.03621,0.3785 0.428996,0.19998 0.472991,-0.1815 0.724386,-0.0561 0.724386,0.36134 0,0.35162 0.207454,0.63931 0.461008,0.63931 0.253555,0 0.341327,-0.19365 0.195049,-0.43033 -0.152295,-0.24642 0.0217,-0.31994 0.407126,-0.17204 0.370196,0.14206 0.566089,0.43141 0.435317,0.643 -0.130772,0.21159 0.06625,0.26806 0.437817,0.12547 0.456019,-0.17499 0.686754,0.003 0.709952,0.54913 0.0189,0.44461 0.129504,0.57452 0.245783,0.28869 0.116279,-0.28583 0.491474,-0.41222 0.833767,-0.28087 0.342292,0.13135 0.515354,0.41194 0.384583,0.62353 -0.130773,0.2116 0.06624,0.26806 0.437817,0.12547 0.456019,-0.17499 0.686754,0.003 0.709951,0.54913 0.0189,0.44461 0.126241,0.58431 0.238531,0.31045 0.11229,-0.27387 0.585974,-0.39809 1.052629,-0.27606 0.668613,0.17485 1.031266,-0.18098 1.710835,-1.67865 0.474303,-1.04529 0.866672,-2.12221 0.87193,-2.39316 0.0053,-0.27094 -0.920929,-1.10118 -2.058195,-1.84497 l -2.067755,-1.35235 4.073256,-0.005 c 3.443143,-0.004 4.034493,0.0959 3.822683,0.64786 -0.13781,0.35913 -0.0818,0.65297 0.12452,0.65297 0.20629,0 0.50452,-0.33732 0.66273,-0.7496 0.24789,-0.64601 0.34915,-0.66105 0.73269,-0.10883 0.3367,0.48478 0.49879,0.50831 0.66583,0.0966 0.317,-0.78124 1.16204,-0.67448 0.86145,0.10883 -0.13781,0.35913 -0.0547,0.65297 0.18475,0.65297 0.23942,0 0.55438,-0.31026 0.69989,-0.68947 0.21482,-0.5598 0.3413,-0.58027 0.67246,-0.10883 0.31897,0.45407 0.456,0.46203 0.62867,0.0365 0.12978,-0.31986 1.01329,-0.54415 2.14344,-0.54415 h 1.92265 v 9.56609 9.56609 l -1.19712,-0.23575 c -0.65842,-0.12966 -2.45927,-0.27168 -4.0019,-0.3156 l -2.80477,-0.0799 -1.2866,4.46985 c -0.70763,2.45843 -1.3736,4.38287 -1.47993,4.27654 -0.10633,-0.10633 0.31457,-1.95874 0.93533,-4.11646 1.49387,-5.19261 1.48534,-5.28219 -0.50378,-5.2862 -0.897849,-0.002 -2.887964,-0.207 -4.422486,-0.45598 l -2.790039,-0.4527 -1.652629,1.61375 c -0.908946,0.88756 -1.77341,2.16366 -1.92103,2.83577 -0.147621,0.67211 -0.743997,1.92285 -1.325281,2.77942 -0.581283,0.85657 -1.056879,1.62133 -1.056879,1.69948 0,0.0781 1.322275,0.27411 2.938389,0.43548 1.616114,0.16137 4.256833,0.73901 5.868265,1.28365 1.990717,0.67282 3.072143,0.84798 3.373706,0.54641 0.301564,-0.30156 0.443834,-0.28037 0.443834,0.0661 0,0.28046 0.63665,0.69376 1.41478,0.91843 1.16229,0.3356 0.73501,0.41551 -2.394247,0.44777 -3.465943,0.0357 -3.809023,-0.0353 -3.809023,-0.78796 0,-0.63469 -0.515284,-0.95083 -2.214006,-1.35834 -3.177088,-0.76218 -6.012559,-0.34801 -7.218893,1.05444 -1.046658,1.21681 -1.450024,1.40241 -1.450024,0.66718 z m 15.84249,-12.84883 c 0.35907,-0.9357 0.3372,-1.05269 -0.19677,-1.05269 -0.25356,0 -0.339942,0.19589 -0.19197,0.43532 0.14797,0.23942 0.0616,0.43531 -0.191967,0.43531 -0.253554,0 -0.461008,0.1959 -0.461008,0.43532 0,0.68865 0.750265,0.50624 1.041715,-0.25326 z m -1.477032,-0.18206 c 0,-0.23942 -0.195892,-0.43531 -0.435316,-0.43531 -0.239425,0 -0.435317,0.19589 -0.435317,0.43531 0,0.23943 0.195892,0.43532 0.435317,0.43532 0.239424,0 0.435316,-0.19589 0.435316,-0.43532 z m 3.047222,0 c 0,-0.23942 -0.1959,-0.43531 -0.43532,-0.43531 -0.23942,0 -0.43532,0.19589 -0.43532,0.43531 0,0.23943 0.1959,0.43532 0.43532,0.43532 0.23942,0 0.43532,-0.19589 0.43532,-0.43532 z m -7.229306,-1.12389 c 0.359062,-0.9357 0.337194,-1.05269 -0.196776,-1.05269 -0.253554,0 -0.33994,0.19589 -0.191967,0.43532 0.147972,0.23942 0.06159,0.43531 -0.191968,0.43531 -0.253554,0 -0.461008,0.1959 -0.461008,0.43532 0,0.68865 0.75027,0.50624 1.041719,-0.25326 z m 3.047218,0 c 0.350667,-0.91383 0.334796,-1.05269 -0.120313,-1.05269 -0.211499,0 -0.486999,0.39178 -0.612221,0.87063 -0.268836,1.02803 0.348982,1.18158 0.732534,0.18206 z m -1.305951,-0.43532 c 0.359063,-0.9357 0.337195,-1.05269 -0.196775,-1.05269 -0.253554,0 -0.33994,0.1959 -0.191968,0.43532 0.147973,0.23942 0.06159,0.43532 -0.191967,0.43532 -0.253554,0 -0.461008,0.19589 -0.461008,0.43531 0,0.68865 0.750269,0.50625 1.041718,-0.25326 z m 2.876134,0.25326 c 0,-0.23942 -0.08638,-0.43531 -0.191967,-0.43531 -0.105582,0 -0.313036,0.19589 -0.461008,0.43531 -0.147973,0.23943 -0.06159,0.43532 0.191967,0.43532 0.253555,0 0.461008,-0.19589 0.461008,-0.43532 z m -3.917852,-1.74126 c 0,-0.23943 -0.08639,-0.43532 -0.191967,-0.43532 -0.105582,0 -0.313036,0.19589 -0.461008,0.43532 -0.147973,0.23942 -0.06159,0.43531 0.191967,0.43531 0.253554,0 0.461008,-0.19589 0.461008,-0.43531 z m 3.469203,-1.0883 c 0,-0.23942 -0.189893,-0.14147 -0.421984,0.21766 -0.232092,0.35914 -0.421985,0.84887 -0.421985,1.08829 0,0.23943 0.189893,0.14148 0.421985,-0.21765 0.232091,-0.35914 0.421984,-0.84887 0.421984,-1.0883 z m -6.73408,0.65298 c 0.147973,-0.23943 0.06159,-0.43532 -0.191967,-0.43532 -0.253554,0 -0.461008,0.19589 -0.461008,0.43532 0,0.23942 0.08638,0.43532 0.191967,0.43532 0.105582,0 0.313036,-0.1959 0.461008,-0.43532 z m 8.475344,-1.08829 c 0,-0.23943 -0.18989,-0.14148 -0.42198,0.21766 -0.23209,0.35913 -0.421986,0.84886 -0.421986,1.08829 0,0.23942 0.189896,0.14148 0.421986,-0.21766 0.23209,-0.35914 0.42198,-0.84887 0.42198,-1.08829 z m -6.516418,0.65297 c 0,-0.23942 -0.195892,-0.43531 -0.435317,-0.43531 -0.239424,0 -0.435316,0.19589 -0.435316,0.43531 0,0.23943 0.195892,0.43532 0.435316,0.43532 0.239425,0 0.435317,-0.19589 0.435317,-0.43532 z m 8.429418,-1.29266 c -0.23958,-0.23958 -1.01257,0.88297 -1.02236,1.48469 -0.004,0.22533 0.27115,0.0297 0.61071,-0.43463 0.33956,-0.46438 0.52481,-0.9369 0.41165,-1.05006 z m 1.56954,-0.23095 c 0,-0.23942 -0.18989,-0.14147 -0.42199,0.21766 -0.23209,0.35914 -0.42198,0.84887 -0.42198,1.08829 0,0.23943 0.18989,0.14148 0.42198,-0.21765 0.2321,-0.35914 0.42199,-0.84887 0.42199,-1.0883 z m -14.352127,0.65298 c 0,-0.23943 -0.195892,-0.43532 -0.435317,-0.43532 -0.239424,0 -0.435317,0.19589 -0.435317,0.43532 0,0.23942 0.195893,0.43532 0.435317,0.43532 0.239425,0 0.435317,-0.1959 0.435317,-0.43532 z m 1.741268,-0.43532 c 0,-0.23942 -0.08639,-0.43532 -0.191967,-0.43532 -0.105583,0 -0.313036,0.1959 -0.461008,0.43532 -0.147973,0.23943 -0.06159,0.43532 0.191967,0.43532 0.253554,0 0.461008,-0.19589 0.461008,-0.43532 z m 5.3822,-1.29266 c -0.239581,-0.23958 -1.012575,0.88297 -1.022365,1.48469 -0.0037,0.22533 0.271157,0.0298 0.610717,-0.43463 0.339561,-0.46438 0.524803,-0.9369 0.411648,-1.05006 z m 1.741268,-0.43531 c -0.239581,-0.23958 -1.012575,0.88297 -1.022365,1.48469 -0.0037,0.22533 0.271156,0.0297 0.610717,-0.43464 0.339561,-0.46437 0.524803,-0.9369 0.411648,-1.05005 z m 3.047221,0 c -0.23958,-0.23958 -1.01258,0.88297 -1.02237,1.48469 -0.004,0.22533 0.27116,0.0297 0.61072,-0.43464 0.33956,-0.46437 0.5248,-0.9369 0.41165,-1.05005 z m -1.68201,0.85734 c 0.14797,-0.23943 0.0616,-0.43532 -0.191967,-0.43532 -0.253554,0 -0.461008,0.19589 -0.461008,0.43532 0,0.23942 0.08639,0.43531 0.191968,0.43531 0.105582,0 0.313035,-0.19589 0.461007,-0.43531 z m 3.12355,0.14888 c -0.15754,-0.15754 -0.0683,-0.54932 0.19841,-0.87063 0.35662,-0.42971 0.35562,-0.5842 -0.004,-0.5842 -0.26874,0 -0.48862,0.0819 -0.48862,0.18205 0,0.10013 -0.1189,0.49192 -0.26423,0.87064 -0.15571,0.40578 -0.0365,0.68857 0.29021,0.68857 0.30494,0 0.42555,-0.12889 0.26801,-0.28643 z m 1.74127,-0.43532 c -0.15754,-0.15754 -0.0683,-0.54932 0.1984,-0.87063 0.35663,-0.42971 0.35563,-0.5842 -0.004,-0.5842 -0.26874,0 -0.48862,0.0819 -0.48862,0.18206 0,0.10013 -0.11891,0.49191 -0.26423,0.87063 -0.15572,0.40578 -0.0365,0.68858 0.29021,0.68858 0.30494,0 0.42555,-0.1289 0.26801,-0.28644 z m -7.400391,-0.87063 c -0.157539,-0.15754 -0.06826,-0.54932 0.198408,-0.87063 0.356626,-0.42971 0.355628,-0.5842 -0.0038,-0.5842 -0.268741,0 -0.488619,0.0819 -0.488619,0.18205 0,0.10013 -0.118905,0.49192 -0.264233,0.87064 -0.155712,0.40577 -0.03652,0.68857 0.290212,0.68857 0.304943,0 0.425548,-0.12889 0.268009,-0.28643 z m 1.741268,-0.43532 c -0.157539,-0.15754 -0.06826,-0.54932 0.198408,-0.87063 0.356626,-0.42971 0.355627,-0.5842 -0.0038,-0.5842 -0.268741,0 -0.48862,0.0819 -0.48862,0.18206 0,0.10012 -0.118904,0.49191 -0.264232,0.87063 -0.155712,0.40578 -0.03652,0.68858 0.290211,0.68858 0.304944,0 0.425549,-0.1289 0.26801,-0.28644 z m 1.741263,-0.43531 c -0.15753,-0.15754 -0.0683,-0.54933 0.19841,-0.87064 0.35663,-0.42971 0.35563,-0.5842 -0.004,-0.5842 -0.26875,0 -0.48862,0.0819 -0.48862,0.18206 0,0.10013 -0.11891,0.49191 -0.26424,0.87063 -0.15571,0.40578 -0.0365,0.68858 0.29021,0.68858 0.30495,0 0.42555,-0.1289 0.26801,-0.28643 z m 1.74127,-0.43532 c -0.15754,-0.15754 -0.0683,-0.54933 0.19841,-0.87063 0.35663,-0.42971 0.35563,-0.5842 -0.004,-0.5842 -0.26874,0 -0.48862,0.0819 -0.48862,0.18205 0,0.10013 -0.1189,0.49192 -0.26423,0.87064 -0.15571,0.40577 -0.0365,0.68857 0.29021,0.68857 0.30495,0 0.42555,-0.12889 0.26801,-0.28643 z m 2.99387,-0.1117 c -0.13533,-0.21898 2e-5,-0.486 0.3008,-0.59338 0.30077,-0.10738 0.38928,-0.36331 0.1967,-0.56872 -0.19259,-0.20541 -0.5324,-0.0853 -0.75514,0.26689 -0.53627,0.84796 -0.52157,1.29334 0.0427,1.29334 0.25356,0 0.35028,-0.17916 0.21495,-0.39813 z m -1.11127,-0.4725 c 0,-0.23942 -0.19589,-0.43532 -0.43532,-0.43532 -0.23942,0 -0.43532,0.1959 -0.43532,0.43532 0,0.23942 0.1959,0.43532 0.43532,0.43532 0.23943,0 0.43532,-0.1959 0.43532,-0.43532 z m -4.54785,-0.83345 c -0.13533,-0.21898 2e-5,-0.486 0.3008,-0.59338 0.30077,-0.10738 0.38928,-0.36331 0.1967,-0.56872 -0.19259,-0.20541 -0.5324,-0.0853 -0.755141,0.26689 -0.536269,0.84796 -0.521566,1.29334 0.04269,1.29334 0.253561,0 0.350281,-0.17916 0.214951,-0.39813 z m -1.111272,-0.4725 c 0,-0.23942 -0.195892,-0.43532 -0.435316,-0.43532 -0.239425,0 -0.435317,0.1959 -0.435317,0.43532 0,0.23942 0.195892,0.43532 0.435317,0.43532 0.239424,0 0.435316,-0.1959 0.435316,-0.43532 z m 2.852542,0.0372 c -0.13534,-0.21898 2e-5,-0.486 0.30079,-0.59338 0.30078,-0.10738 0.38929,-0.36331 0.19671,-0.56872 -0.19259,-0.20541 -0.5324,-0.0853 -0.75514,0.26689 -0.53627,0.84797 -0.52157,1.29335 0.0427,1.29335 0.25356,0 0.35028,-0.17917 0.21495,-0.39814 z m 1.74126,-0.43532 c -0.13533,-0.21897 3e-5,-0.48599 0.3008,-0.59338 0.30077,-0.10738 0.38929,-0.3633 0.1967,-0.56872 -0.19258,-0.20541 -0.5324,-0.0853 -0.75514,0.2669 -0.53626,0.84796 -0.52156,1.29334 0.0427,1.29334 0.25355,0 0.35028,-0.17916 0.21494,-0.39814 z m 2.11728,-0.75246 c 0.36444,-0.94971 -0.11944,-1.39114 -0.63365,-0.57806 -0.51478,0.81398 -0.52574,1.29334 -0.0296,1.29334 0.21381,0 0.51226,-0.32187 0.66322,-0.71528 z m -21.947174,0.088 c 0,-0.10558 -0.195892,-0.31304 -0.435316,-0.46101 -0.239425,-0.14797 -0.435317,-0.0616 -0.435317,0.19197 0,0.25355 0.195892,0.46101 0.435317,0.46101 0.239424,0 0.435316,-0.0864 0.435316,-0.19197 z m 23.688444,-0.52332 c 0.36444,-0.94971 -0.11944,-1.39114 -0.63365,-0.57806 -0.51478,0.81398 -0.52574,1.29335 -0.0296,1.29335 0.21381,0 0.51226,-0.32188 0.66322,-0.71529 z m -7.40039,-0.87063 c 0.36444,-0.94971 -0.11944,-1.39114 -0.633648,-0.57806 -0.514779,0.81398 -0.525739,1.29334 -0.02957,1.29334 0.213809,0 0.512259,-0.32187 0.663218,-0.71528 z m 1.73102,-0.40861 c 0.35907,-0.93571 0.3372,-1.05269 -0.19677,-1.05269 -0.25356,0 -0.33994,0.19589 -0.19197,0.43531 0.14797,0.23943 0.0616,0.43532 -0.19197,0.43532 -0.25355,0 -0.461,0.19589 -0.461,0.43532 0,0.68865 0.75027,0.50624 1.04171,-0.25326 z m 1.74127,-0.43532 c 0.35906,-0.9357 0.3372,-1.05269 -0.19677,-1.05269 -0.25356,0 -0.33994,0.19589 -0.19197,0.43532 0.14797,0.23942 0.0616,0.43531 -0.19197,0.43531 -0.25355,0 -0.46101,0.1959 -0.46101,0.43532 0,0.68865 0.75027,0.50624 1.04172,-0.25326 z m 3.04722,0 c 0.35067,-0.91382 0.3348,-1.05269 -0.12031,-1.05269 -0.2115,0 -0.487,0.39179 -0.61222,0.87063 -0.26884,1.02804 0.34898,1.18158 0.73253,0.18206 z m -1.47703,-0.18206 c 0,-0.23942 -0.1959,-0.43531 -0.43532,-0.43531 -0.23943,0 -0.43532,0.19589 -0.43532,0.43531 0,0.23943 0.19589,0.43532 0.43532,0.43532 0.23942,0 0.43532,-0.19589 0.43532,-0.43532 z m 3.2183,-0.25326 c 0.35067,-0.91382 0.33479,-1.05269 -0.12031,-1.05269 -0.2115,0 -0.487,0.39179 -0.61223,0.87064 -0.26883,1.02803 0.34899,1.18157 0.73254,0.18205 z m 2.28339,27.02525 c 0.13782,-0.35913 0.32756,-0.65297 0.42166,-0.65297 0.0941,0 0.17108,0.29384 0.17108,0.65297 0,0.35914 -0.18974,0.65298 -0.42165,0.65298 -0.23191,0 -0.3089,-0.29384 -0.17109,-0.65298 z"
         id="path962" />
      <path
         style="fill:#4d5a30;stroke-width:0.43531689"
         d="m 84.67182,191.16891 c 0,-0.7829 0.925574,-2.28655 2.471862,-4.01569 0.811569,-0.90754 1.348577,-1.85556 1.193352,-2.10673 -0.155226,-0.25116 -1.82697,-1.15282 -3.714989,-2.00369 -1.888018,-0.85087 -3.43276,-1.70854 -3.43276,-1.90593 0,-0.43086 0.678157,-0.16046 4.231926,1.68737 1.489574,0.77452 2.873514,1.40822 3.075422,1.40822 0.201907,0 0.690317,-0.67778 1.085355,-1.50619 0.395038,-0.8284 1.312836,-2.32699 2.039552,-3.33019 0.726716,-1.0032 1.321302,-2.09009 1.321302,-2.41531 0,-0.32522 -1.708296,-1.38054 -3.796212,-2.34516 -2.087917,-0.96462 -4.732467,-2.35465 -5.876779,-3.08895 -1.813302,-1.1636 -2.080566,-1.52499 -2.080566,-2.81333 0,-0.81302 0.197553,-1.47823 0.439006,-1.47823 0.272762,0 0.249357,-0.30367 -0.06181,-0.80193 -0.39436,-0.63147 -0.331071,-1.18665 0.297745,-2.6119 0.815868,-1.8492 1.786733,-2.51186 1.375351,-0.93874 -0.125308,0.47918 -0.04883,0.76061 0.169961,0.62539 0.218787,-0.13522 0.510569,0.048 0.648405,0.40723 0.14689,0.38279 0.535502,0.54375 0.938971,0.38893 0.472755,-0.18141 0.584136,-0.0955 0.355605,0.27426 -0.208143,0.33678 -0.112621,0.49554 0.255076,0.42395 1.0015,-0.19501 2.578191,0.52382 2.264009,1.03218 -0.189701,0.30694 -0.03621,0.3785 0.428996,0.19998 0.472991,-0.1815 0.724386,-0.0561 0.724386,0.36134 0,0.35162 0.207454,0.63931 0.461008,0.63931 0.253555,0 0.341327,-0.19365 0.195049,-0.43033 -0.152295,-0.24642 0.0217,-0.31994 0.407126,-0.17204 0.370196,0.14206 0.566089,0.43141 0.435317,0.643 -0.130772,0.21159 0.06625,0.26806 0.437817,0.12547 0.456019,-0.17499 0.686754,0.003 0.709952,0.54913 0.0189,0.44461 0.129504,0.57452 0.245783,0.28869 0.116279,-0.28583 0.491474,-0.41222 0.833767,-0.28087 0.342292,0.13135 0.515354,0.41194 0.384583,0.62353 -0.130773,0.2116 0.06624,0.26806 0.437817,0.12547 0.456019,-0.17499 0.686754,0.003 0.709951,0.54913 0.0189,0.44461 0.126241,0.58431 0.238531,0.31045 0.11229,-0.27387 0.587371,-0.39772 1.055735,-0.27524 0.680129,0.17785 1.033414,-0.1884 1.754798,-1.8192 0.496774,-1.12304 0.779445,-2.36446 0.628157,-2.75871 -0.151287,-0.39425 -0.155475,-0.59722 -0.0093,-0.45106 0.146168,0.14617 0.885803,-0.30056 1.643632,-0.99273 1.485541,-1.35682 2.746281,-1.68413 2.332371,-0.60551 -0.13781,0.35913 -0.0818,0.65297 0.12452,0.65297 0.20629,0 0.50452,-0.33732 0.66273,-0.7496 0.24789,-0.64601 0.34914,-0.66105 0.73269,-0.10883 0.3367,0.48478 0.49879,0.50831 0.66583,0.0966 0.317,-0.78124 1.16204,-0.67448 0.86145,0.10883 -0.13781,0.35913 -0.0547,0.65297 0.18475,0.65297 0.23942,0 0.55438,-0.31026 0.69989,-0.68947 0.21482,-0.5598 0.3413,-0.58027 0.67246,-0.10883 0.31896,0.45407 0.456,0.46203 0.62867,0.0365 0.12978,-0.31986 1.01329,-0.54415 2.14344,-0.54415 h 1.92265 v 9.48537 9.48538 l -3.45193,-0.40204 c -1.89857,-0.22112 -3.71987,-0.29922 -4.04735,-0.17356 -0.32747,0.12567 -1.1582,2.20804 -1.84607,4.6275 -0.68786,2.41947 -1.33338,4.3163 -1.43447,4.2152 -0.1011,-0.1011 0.32407,-1.94923 0.94483,-4.10695 1.49387,-5.19261 1.48533,-5.28219 -0.50379,-5.2862 -0.897841,-0.002 -2.887956,-0.207 -4.422478,-0.45598 l -2.790039,-0.4527 -1.652629,1.61375 c -0.908946,0.88756 -1.77341,2.16366 -1.92103,2.83577 -0.147621,0.67211 -0.743997,1.92285 -1.325281,2.77942 -0.581283,0.85657 -1.056879,1.62133 -1.056879,1.69948 0,0.0781 1.322275,0.27411 2.938389,0.43548 1.616114,0.16137 4.256833,0.73901 5.868265,1.28365 1.990717,0.67282 3.072143,0.84798 3.373706,0.54641 0.301556,-0.30156 0.443826,-0.27188 0.443826,0.0926 0,0.29503 0.44076,0.71357 0.97946,0.9301 0.71542,0.28757 0.07,0.40114 -2.394236,0.42129 -3.081965,0.0252 -3.373706,-0.047 -3.373706,-0.83474 0,-1.10686 -1.48903,-1.53157 -5.370324,-1.53176 -2.70688,-1.3e-4 -3.069223,0.10814 -4.005801,1.19698 -1.100477,1.27938 -1.506798,1.47709 -1.506798,0.73318 z m 15.84249,-12.84883 c 0.35907,-0.9357 0.3372,-1.05269 -0.19677,-1.05269 -0.25356,0 -0.339942,0.19589 -0.19197,0.43532 0.14797,0.23942 0.0616,0.43531 -0.191967,0.43531 -0.253554,0 -0.461008,0.1959 -0.461008,0.43532 0,0.68865 0.750265,0.50624 1.041715,-0.25326 z m -1.477032,-0.18206 c 0,-0.23942 -0.195892,-0.43531 -0.435316,-0.43531 -0.239425,0 -0.435317,0.19589 -0.435317,0.43531 0,0.23943 0.195892,0.43532 0.435317,0.43532 0.239424,0 0.435316,-0.19589 0.435316,-0.43532 z m 3.047222,0 c 0,-0.23942 -0.1959,-0.43531 -0.43532,-0.43531 -0.23942,0 -0.43532,0.19589 -0.43532,0.43531 0,0.23943 0.1959,0.43532 0.43532,0.43532 0.23942,0 0.43532,-0.19589 0.43532,-0.43532 z m -7.229306,-1.12389 c 0.359062,-0.9357 0.337194,-1.05269 -0.196776,-1.05269 -0.253554,0 -0.33994,0.19589 -0.191967,0.43532 0.147972,0.23942 0.06159,0.43531 -0.191968,0.43531 -0.253554,0 -0.461008,0.1959 -0.461008,0.43532 0,0.68865 0.75027,0.50624 1.041719,-0.25326 z m 3.047218,0 c 0.350667,-0.91383 0.334796,-1.05269 -0.120313,-1.05269 -0.211499,0 -0.486999,0.39178 -0.612221,0.87063 -0.268836,1.02803 0.348982,1.18158 0.732534,0.18206 z m -1.305951,-0.43532 c 0.359063,-0.9357 0.337195,-1.05269 -0.196775,-1.05269 -0.253554,0 -0.33994,0.1959 -0.191968,0.43532 0.147973,0.23942 0.06159,0.43532 -0.191967,0.43532 -0.253554,0 -0.461008,0.19589 -0.461008,0.43531 0,0.68865 0.750269,0.50625 1.041718,-0.25326 z m 2.876134,0.25326 c 0,-0.23942 -0.08638,-0.43531 -0.191967,-0.43531 -0.105582,0 -0.313036,0.19589 -0.461008,0.43531 -0.147973,0.23943 -0.06159,0.43532 0.191967,0.43532 0.253555,0 0.461008,-0.19589 0.461008,-0.43532 z m -3.917852,-1.74126 c 0,-0.23943 -0.08639,-0.43532 -0.191967,-0.43532 -0.105582,0 -0.313036,0.19589 -0.461008,0.43532 -0.147973,0.23942 -0.06159,0.43531 0.191967,0.43531 0.253554,0 0.461008,-0.19589 0.461008,-0.43531 z m 3.469203,-1.0883 c 0,-0.23942 -0.189893,-0.14147 -0.421984,0.21766 -0.232092,0.35914 -0.421985,0.84887 -0.421985,1.08829 0,0.23943 0.189893,0.14148 0.421985,-0.21765 0.232091,-0.35914 0.421984,-0.84887 0.421984,-1.0883 z m -6.73408,0.65298 c 0.147973,-0.23943 0.06159,-0.43532 -0.191967,-0.43532 -0.253554,0 -0.461008,0.19589 -0.461008,0.43532 0,0.23942 0.08638,0.43532 0.191967,0.43532 0.105582,0 0.313036,-0.1959 0.461008,-0.43532 z m 8.475344,-1.08829 c 0,-0.23943 -0.18989,-0.14148 -0.42198,0.21766 -0.23209,0.35913 -0.421986,0.84886 -0.421986,1.08829 0,0.23942 0.189896,0.14148 0.421986,-0.21766 0.23209,-0.35914 0.42198,-0.84887 0.42198,-1.08829 z m -6.516418,0.65297 c 0,-0.23942 -0.195892,-0.43531 -0.435317,-0.43531 -0.239424,0 -0.435316,0.19589 -0.435316,0.43531 0,0.23943 0.195892,0.43532 0.435316,0.43532 0.239425,0 0.435317,-0.19589 0.435317,-0.43532 z m 8.429418,-1.29266 c -0.23958,-0.23958 -1.01257,0.88297 -1.02236,1.48469 -0.004,0.22533 0.27115,0.0297 0.61071,-0.43463 0.33956,-0.46438 0.52481,-0.9369 0.41165,-1.05006 z m 1.56954,-0.23095 c 0,-0.23942 -0.18989,-0.14147 -0.42199,0.21766 -0.23209,0.35914 -0.42198,0.84887 -0.42198,1.08829 0,0.23943 0.18989,0.14148 0.42198,-0.21765 0.2321,-0.35914 0.42199,-0.84887 0.42199,-1.0883 z m -14.352127,0.65298 c 0,-0.23943 -0.195892,-0.43532 -0.435317,-0.43532 -0.239424,0 -0.435317,0.19589 -0.435317,0.43532 0,0.23942 0.195893,0.43532 0.435317,0.43532 0.239425,0 0.435317,-0.1959 0.435317,-0.43532 z m 1.741268,-0.43532 c 0,-0.23942 -0.08639,-0.43532 -0.191967,-0.43532 -0.105583,0 -0.313036,0.1959 -0.461008,0.43532 -0.147973,0.23943 -0.06159,0.43532 0.191967,0.43532 0.253554,0 0.461008,-0.19589 0.461008,-0.43532 z m 5.3822,-1.29266 c -0.239581,-0.23958 -1.012575,0.88297 -1.022365,1.48469 -0.0037,0.22533 0.271157,0.0298 0.610717,-0.43463 0.339561,-0.46438 0.524803,-0.9369 0.411648,-1.05006 z m 1.741268,-0.43531 c -0.239581,-0.23958 -1.012575,0.88297 -1.022365,1.48469 -0.0037,0.22533 0.271156,0.0297 0.610717,-0.43464 0.339561,-0.46437 0.524803,-0.9369 0.411648,-1.05005 z m 3.047221,0 c -0.23958,-0.23958 -1.01258,0.88297 -1.02237,1.48469 -0.004,0.22533 0.27116,0.0297 0.61072,-0.43464 0.33956,-0.46437 0.5248,-0.9369 0.41165,-1.05005 z m -1.68201,0.85734 c 0.14797,-0.23943 0.0616,-0.43532 -0.191967,-0.43532 -0.253554,0 -0.461008,0.19589 -0.461008,0.43532 0,0.23942 0.08639,0.43531 0.191968,0.43531 0.105582,0 0.313035,-0.19589 0.461007,-0.43531 z m 3.12355,0.14888 c -0.15754,-0.15754 -0.0683,-0.54932 0.19841,-0.87063 0.35662,-0.42971 0.35562,-0.5842 -0.004,-0.5842 -0.26874,0 -0.48862,0.0819 -0.48862,0.18205 0,0.10013 -0.1189,0.49192 -0.26423,0.87064 -0.15571,0.40578 -0.0365,0.68857 0.29021,0.68857 0.30494,0 0.42555,-0.12889 0.26801,-0.28643 z m 1.74127,-0.43532 c -0.15754,-0.15754 -0.0683,-0.54932 0.1984,-0.87063 0.35663,-0.42971 0.35563,-0.5842 -0.004,-0.5842 -0.26874,0 -0.48862,0.0819 -0.48862,0.18206 0,0.10013 -0.11891,0.49191 -0.26423,0.87063 -0.15572,0.40578 -0.0365,0.68858 0.29021,0.68858 0.30494,0 0.42555,-0.1289 0.26801,-0.28644 z m -7.400391,-0.87063 c -0.157539,-0.15754 -0.06826,-0.54932 0.198408,-0.87063 0.356626,-0.42971 0.355628,-0.5842 -0.0038,-0.5842 -0.268741,0 -0.488619,0.0819 -0.488619,0.18205 0,0.10013 -0.118905,0.49192 -0.264233,0.87064 -0.155712,0.40577 -0.03652,0.68857 0.290212,0.68857 0.304943,0 0.425548,-0.12889 0.268009,-0.28643 z m 1.741268,-0.43532 c -0.157539,-0.15754 -0.06826,-0.54932 0.198408,-0.87063 0.356626,-0.42971 0.355627,-0.5842 -0.0038,-0.5842 -0.268741,0 -0.48862,0.0819 -0.48862,0.18206 0,0.10012 -0.118904,0.49191 -0.264232,0.87063 -0.155712,0.40578 -0.03652,0.68858 0.290211,0.68858 0.304944,0 0.425549,-0.1289 0.26801,-0.28644 z m 1.741263,-0.43531 c -0.15753,-0.15754 -0.0683,-0.54933 0.19841,-0.87064 0.35663,-0.42971 0.35563,-0.5842 -0.004,-0.5842 -0.26875,0 -0.48862,0.0819 -0.48862,0.18206 0,0.10013 -0.11891,0.49191 -0.26424,0.87063 -0.15571,0.40578 -0.0365,0.68858 0.29021,0.68858 0.30495,0 0.42555,-0.1289 0.26801,-0.28643 z m 1.74127,-0.43532 c -0.15754,-0.15754 -0.0683,-0.54933 0.19841,-0.87063 0.35663,-0.42971 0.35563,-0.5842 -0.004,-0.5842 -0.26874,0 -0.48862,0.0819 -0.48862,0.18205 0,0.10013 -0.1189,0.49192 -0.26423,0.87064 -0.15571,0.40577 -0.0365,0.68857 0.29021,0.68857 0.30495,0 0.42555,-0.12889 0.26801,-0.28643 z m 2.99387,-0.1117 c -0.13533,-0.21898 2e-5,-0.486 0.3008,-0.59338 0.30077,-0.10738 0.38928,-0.36331 0.1967,-0.56872 -0.19259,-0.20541 -0.5324,-0.0853 -0.75514,0.26689 -0.53627,0.84796 -0.52157,1.29334 0.0427,1.29334 0.25356,0 0.35028,-0.17916 0.21495,-0.39813 z m -1.11127,-0.4725 c 0,-0.23942 -0.19589,-0.43532 -0.43532,-0.43532 -0.23942,0 -0.43532,0.1959 -0.43532,0.43532 0,0.23942 0.1959,0.43532 0.43532,0.43532 0.23943,0 0.43532,-0.1959 0.43532,-0.43532 z m -4.54785,-0.83345 c -0.13533,-0.21898 2e-5,-0.486 0.3008,-0.59338 0.30077,-0.10738 0.38928,-0.36331 0.1967,-0.56872 -0.19259,-0.20541 -0.5324,-0.0853 -0.755141,0.26689 -0.536269,0.84796 -0.521566,1.29334 0.04269,1.29334 0.253561,0 0.350281,-0.17916 0.214951,-0.39813 z m -1.111272,-0.4725 c 0,-0.23942 -0.195892,-0.43532 -0.435316,-0.43532 -0.239425,0 -0.435317,0.1959 -0.435317,0.43532 0,0.23942 0.195892,0.43532 0.435317,0.43532 0.239424,0 0.435316,-0.1959 0.435316,-0.43532 z m 2.852542,0.0372 c -0.13534,-0.21898 2e-5,-0.486 0.30079,-0.59338 0.30078,-0.10738 0.38929,-0.36331 0.19671,-0.56872 -0.19259,-0.20541 -0.5324,-0.0853 -0.75514,0.26689 -0.53627,0.84797 -0.52157,1.29335 0.0427,1.29335 0.25356,0 0.35028,-0.17917 0.21495,-0.39814 z m 1.74126,-0.43532 c -0.13533,-0.21897 3e-5,-0.48599 0.3008,-0.59338 0.30077,-0.10738 0.38929,-0.3633 0.1967,-0.56872 -0.19258,-0.20541 -0.5324,-0.0853 -0.75514,0.2669 -0.53626,0.84796 -0.52156,1.29334 0.0427,1.29334 0.25355,0 0.35028,-0.17916 0.21494,-0.39814 z m 2.11728,-0.75246 c 0.36444,-0.94971 -0.11944,-1.39114 -0.63365,-0.57806 -0.51478,0.81398 -0.52574,1.29334 -0.0296,1.29334 0.21381,0 0.51226,-0.32187 0.66322,-0.71528 z m -21.947174,0.088 c 0,-0.10558 -0.195892,-0.31304 -0.435316,-0.46101 -0.239425,-0.14797 -0.435317,-0.0616 -0.435317,0.19197 0,0.25355 0.195892,0.46101 0.435317,0.46101 0.239424,0 0.435316,-0.0864 0.435316,-0.19197 z m 23.688444,-0.52332 c 0.36444,-0.94971 -0.11944,-1.39114 -0.63365,-0.57806 -0.51478,0.81398 -0.52574,1.29335 -0.0296,1.29335 0.21381,0 0.51226,-0.32188 0.66322,-0.71529 z m -7.40039,-0.87063 c 0.36444,-0.94971 -0.11944,-1.39114 -0.633648,-0.57806 -0.514779,0.81398 -0.525739,1.29334 -0.02957,1.29334 0.213809,0 0.512259,-0.32187 0.663218,-0.71528 z m 1.73102,-0.40861 c 0.35907,-0.93571 0.3372,-1.05269 -0.19677,-1.05269 -0.25356,0 -0.33994,0.19589 -0.19197,0.43531 0.14797,0.23943 0.0616,0.43532 -0.19197,0.43532 -0.25355,0 -0.461,0.19589 -0.461,0.43532 0,0.68865 0.75027,0.50624 1.04171,-0.25326 z m 1.74127,-0.43532 c 0.35906,-0.9357 0.3372,-1.05269 -0.19677,-1.05269 -0.25356,0 -0.33994,0.19589 -0.19197,0.43532 0.14797,0.23942 0.0616,0.43531 -0.19197,0.43531 -0.25355,0 -0.46101,0.1959 -0.46101,0.43532 0,0.68865 0.75027,0.50624 1.04172,-0.25326 z m 3.04722,0 c 0.35067,-0.91382 0.3348,-1.05269 -0.12031,-1.05269 -0.2115,0 -0.487,0.39179 -0.61222,0.87063 -0.26884,1.02804 0.34898,1.18158 0.73253,0.18206 z m -1.47703,-0.18206 c 0,-0.23942 -0.1959,-0.43531 -0.43532,-0.43531 -0.23943,0 -0.43532,0.19589 -0.43532,0.43531 0,0.23943 0.19589,0.43532 0.43532,0.43532 0.23942,0 0.43532,-0.19589 0.43532,-0.43532 z m 3.2183,-0.25326 c 0.35067,-0.91382 0.33479,-1.05269 -0.12031,-1.05269 -0.2115,0 -0.487,0.39179 -0.61223,0.87064 -0.26883,1.02803 0.34899,1.18157 0.73254,0.18205 z m 2.28339,27.02525 c 0.13782,-0.35913 0.32756,-0.65297 0.42166,-0.65297 0.0941,0 0.17108,0.29384 0.17108,0.65297 0,0.35914 -0.18974,0.65298 -0.42165,0.65298 -0.23191,0 -0.3089,-0.29384 -0.17109,-0.65298 z"
         id="path960" />
    </g>
  </g>
</svg>
