<?xml version="1.0" encoding="UTF-8" standalone="no"?>
<svg
   xmlns:dc="http://purl.org/dc/elements/1.1/"
   xmlns:cc="http://creativecommons.org/ns#"
   xmlns:rdf="http://www.w3.org/1999/02/22-rdf-syntax-ns#"
   xmlns:svg="http://www.w3.org/2000/svg"
   xmlns="http://www.w3.org/2000/svg"
   xmlns:sodipodi="http://sodipodi.sourceforge.net/DTD/sodipodi-0.dtd"
   xmlns:inkscape="http://www.inkscape.org/namespaces/inkscape"
   version="1.1"
   id="rail-15"
   width="30"
   height="30"
   viewBox="0 0 30 30"
   sodipodi:docname="rail-30.svg"
   inkscape:version="0.92.3 (2405546, 2018-03-11)">
  <metadata
     id="metadata8">
    <rdf:RDF>
      <cc:Work
         rdf:about="">
        <dc:format>image/svg+xml</dc:format>
        <dc:type
           rdf:resource="http://purl.org/dc/dcmitype/StillImage" />
        <dc:title></dc:title>
      </cc:Work>
    </rdf:RDF>
  </metadata>
  <defs
     id="defs6" />
  <sodipodi:namedview
     pagecolor="#ffffff"
     bordercolor="#666666"
     borderopacity="1"
     objecttolerance="10"
     gridtolerance="10"
     guidetolerance="10"
     inkscape:pageopacity="0"
     inkscape:pageshadow="2"
     inkscape:window-width="1916"
     inkscape:window-height="1149"
     id="namedview4"
     showgrid="false"
     inkscape:zoom="15.733333"
     inkscape:cx="-2.5105932"
     inkscape:cy="7.5"
     inkscape:window-x="0"
     inkscape:window-y="49"
     inkscape:window-maximized="0"
     inkscape:current-layer="rail-15" />
  <path
     d="m 5.433414,0.11864407 c -1.174139,0 -2.125908,0.95176893 -2.125908,2.12590793 v 17.007264 c 0,1.174139 0.951769,2.125908 2.125908,2.125908 h 19.133172 c 1.174139,0 2.125908,-0.951769 2.125908,-2.125908 V 2.244552 c 0,-1.174139 -0.951769,-2.12590793 -2.125908,-2.12590793 z M 11.279661,1.181598 h 0.02077 7.440678 c 0.293588,0 0.531477,0.2378891 0.531477,0.531477 0,0.2935879 -0.237889,0.531477 -0.531477,0.531477 h -7.461448 c -0.293588,0 -0.531477,-0.2378891 -0.531477,-0.531477 0,-0.2935879 0.237889,-0.531477 0.531477,-0.531477 z M 6.496368,4.37046 h 7.440678 v 8.503632 H 6.496368 c -0.5869632,0 -1.062954,-0.475991 -1.062954,-1.062954 V 5.433414 c 0,-0.5869632 0.4759908,-1.062954 1.062954,-1.062954 z m 9.566586,0 h 7.440678 c 0.586963,0 1.062954,0.4759908 1.062954,1.062954 v 6.377724 c 0,0.586963 -0.475991,1.062954 -1.062954,1.062954 H 16.062954 Z M 9.68523,15 c 1.174139,0 2.125908,0.951769 2.125908,2.125908 0,1.174139 -0.951769,2.125908 -2.125908,2.125908 -1.174139,0 -2.125908,-0.951769 -2.125908,-2.125908 C 7.559322,15.951769 8.511091,15 9.68523,15 Z m 10.62954,0 c 1.174139,0 2.125908,0.951769 2.125908,2.125908 0,1.174139 -0.951769,2.125908 -2.125908,2.125908 -1.174139,0 -2.125908,-0.951769 -2.125908,-2.125908 C 18.188862,15.951769 19.140631,15 20.31477,15 Z m 0.946692,8.491176 c -0.137567,0.01169 -0.277071,0.05196 -0.406911,0.120412 -0.474716,0.250007 -0.688103,0.814522 -0.49826,1.316237 L 20.71753,25.62954 H 9.2824701 L 9.5565128,25.056542 C 9.764214,24.50742 9.4869616,23.894027 8.9378404,23.686328 8.4361262,23.496697 7.8716113,23.710075 7.6216045,24.184586 l -2.125908,4.251816 c -0.045069,0.122452 -0.065259,0.251682 -0.062283,0.382 5e-7,0.586963 0.4759913,1.062954 1.0629545,1.062954 0.3830886,-0.0021 0.7336243,-0.213794 0.9134761,-0.552239 V 29.221164 H 7.559322 L 8.2195161,27.755448 H 21.780484 l 0.660194,1.465714 v 0.107953 c 0.179852,0.338445 0.530388,0.550113 0.913477,0.552239 0.586961,0 1.062954,-0.475991 1.062954,-1.062954 0.04231,-0.167522 0.04231,-0.343194 0,-0.510716 l -2.125908,-4.251815 c -0.205193,-0.38952 -0.617,-0.599842 -1.029739,-0.564693 z"
     id="path3"
     inkscape:connector-curvature="0"
     style="stroke-width:2.1259079" />
</svg>
