<?xml version="1.0" encoding="UTF-8" standalone="no"?>
<svg
   xmlns:dc="http://purl.org/dc/elements/1.1/"
   xmlns:cc="http://creativecommons.org/ns#"
   xmlns:rdf="http://www.w3.org/1999/02/22-rdf-syntax-ns#"
   xmlns:svg="http://www.w3.org/2000/svg"
   xmlns="http://www.w3.org/2000/svg"
   xmlns:sodipodi="http://sodipodi.sourceforge.net/DTD/sodipodi-0.dtd"
   xmlns:inkscape="http://www.inkscape.org/namespaces/inkscape"
   version="1.1"
   id="rail-metro-15"
   width="30"
   height="30"
   viewBox="0 0 30 30"
   sodipodi:docname="rail-metro-30.svg"
   inkscape:version="0.92.3 (2405546, 2018-03-11)">
  <metadata
     id="metadata8">
    <rdf:RDF>
      <cc:Work
         rdf:about="">
        <dc:format>image/svg+xml</dc:format>
        <dc:type
           rdf:resource="http://purl.org/dc/dcmitype/StillImage" />
        <dc:title></dc:title>
      </cc:Work>
    </rdf:RDF>
  </metadata>
  <defs
     id="defs6" />
  <sodipodi:namedview
     pagecolor="#ffffff"
     bordercolor="#666666"
     borderopacity="1"
     objecttolerance="10"
     gridtolerance="10"
     guidetolerance="10"
     inkscape:pageopacity="0"
     inkscape:pageshadow="2"
     inkscape:window-width="1916"
     inkscape:window-height="1149"
     id="namedview4"
     showgrid="false"
     inkscape:zoom="15.733333"
     inkscape:cx="-2.5105932"
     inkscape:cy="7.5"
     inkscape:window-x="0"
     inkscape:window-y="49"
     inkscape:window-maximized="0"
     inkscape:current-layer="rail-metro-15" />
  <path
     id="path5258"
     d="m 11.008475,0.06355932 c 0,0 -1.4968223,0 -1.9957629,1.99576268 L 6.019068,13.036017 v 6.985169 c 0,1.995763 1.9957627,1.995763 1.9957627,1.995763 H 21.98517 c 0,0 1.995762,0 1.995762,-1.995763 V 13.036017 L 20.987288,2.059322 C 20.443044,0.06355932 18.991526,0.06355932 18.991526,0.06355932 Z m 1.995763,2.99364408 h 3.991525 c 0,0 1.06913,0 1.496822,1.9957627 l 1.496822,6.9851699 c 0.428291,1.999155 -1.995763,1.995762 -1.995763,1.995762 h -5.987288 c 0,0 -2.4240533,0.0034 -1.995763,-1.995762 L 11.507416,5.0529661 C 11.935107,3.0572034 13.004238,3.0572034 13.004238,3.0572034 Z M 10.010593,16.029661 c 1.10226,0 1.995763,0.893503 1.995763,1.995763 0,1.102259 -0.893503,1.995762 -1.995763,1.995762 -1.1022593,0 -1.9957623,-0.893503 -1.9957623,-1.995762 0,-1.10226 0.893503,-1.995763 1.9957623,-1.995763 z m 3.492585,0 h 2.993644 c 0.276413,0 0.498941,0.222528 0.498941,0.498941 0,0.276413 -0.222528,0.49894 -0.498941,0.49894 h -2.993644 c -0.276413,0 -0.49894,-0.222527 -0.49894,-0.49894 0,-0.276413 0.222527,-0.498941 0.49894,-0.498941 z m 6.486229,0 c 1.10226,0 1.995763,0.893503 1.995763,1.995763 0,1.102259 -0.893503,1.995762 -1.995763,1.995762 -1.10226,0 -1.995763,-0.893503 -1.995763,-1.995762 0,-1.10226 0.893503,-1.995763 1.995763,-1.995763 z M 8.2643011,24.012712 6.019068,30 h 2.9936441 l 0.748411,-1.995763 H 20.238877 L 20.987288,30 h 2.993644 l -2.245233,-5.987288 h -2.993644 l 0.748411,1.995763 h -8.980932 l 0.748411,-1.995763 z"
     inkscape:connector-curvature="0"
     style="stroke-width:1.99576271" />
</svg>
