<?xml version="1.0" encoding="UTF-8" standalone="no"?>
<svg
   xmlns:dc="http://purl.org/dc/elements/1.1/"
   xmlns:cc="http://creativecommons.org/ns#"
   xmlns:rdf="http://www.w3.org/1999/02/22-rdf-syntax-ns#"
   xmlns:svg="http://www.w3.org/2000/svg"
   xmlns="http://www.w3.org/2000/svg"
   xmlns:sodipodi="http://sodipodi.sourceforge.net/DTD/sodipodi-0.dtd"
   xmlns:inkscape="http://www.inkscape.org/namespaces/inkscape"
   version="1.1"
   id="restaurant-15"
   width="30"
   height="30"
   viewBox="0 0 30 30"
   sodipodi:docname="restaurant-30.svg"
   inkscape:version="0.92.3 (2405546, 2018-03-11)">
  <metadata
     id="metadata883">
    <rdf:RDF>
      <cc:Work
         rdf:about="">
        <dc:format>image/svg+xml</dc:format>
        <dc:type
           rdf:resource="http://purl.org/dc/dcmitype/StillImage" />
        <dc:title></dc:title>
      </cc:Work>
    </rdf:RDF>
  </metadata>
  <defs
     id="defs881" />
  <sodipodi:namedview
     pagecolor="#ffffff"
     bordercolor="#666666"
     borderopacity="1"
     objecttolerance="10"
     gridtolerance="10"
     guidetolerance="10"
     inkscape:pageopacity="0"
     inkscape:pageshadow="2"
     inkscape:window-width="1916"
     inkscape:window-height="1149"
     id="namedview879"
     showgrid="false"
     inkscape:zoom="7.9833333"
     inkscape:cx="19.643106"
     inkscape:cy="-2.5898744"
     inkscape:window-x="0"
     inkscape:window-y="49"
     inkscape:window-maximized="0"
     inkscape:current-layer="restaurant-15" />
  <path
     id="path11774"
     d="M 7.5313981,0.04697287 5.5376611,11.012526 C 5.245778,12.617484 9.0895035,13.367129 9.0267008,15 L 8.5282666,27.95929 c -0.07656,1.992341 1.9937364,1.993737 1.9937364,1.993737 0,0 2.070297,-0.0014 1.993737,-1.993737 L 12.017306,15 c -0.0626,-1.630079 3.455944,-2.354205 3.48904,-3.987474 L 13.512609,0.04697287 H 12.51574 L 13.014175,8.0219206 11.518872,9.0187891 11.020438,0.04697287 H 10.023569 L 9.525135,9.0187891 8.0298323,8.0219206 8.5282666,0.04697287 Z m 16.9467639,0 c -1.468188,0 -3.916098,1.30569833 -4.894824,3.26314923 C 18.7677,4.77831 18.496951,8.0582067 18.496951,10.015657 V 15 c 0,1.631275 2.174968,1.993737 2.990605,1.993737 L 20.490688,27.95929 c -0.180433,1.985563 1.993737,1.993737 1.993737,1.993737 0,0 1.993737,0 1.993737,-1.993737 z"
     inkscape:connector-curvature="0"
     style="stroke-width:1.99373698" />
</svg>
